<svg viewBox="0 0 1440.0909423828125 400" xmlns="http://www.w3.org/2000/svg"><g><g><g><g><g><line x1="50" y1="377" x2="45" y2="377" style="visibility: inherit;" fill="rgb(0, 0, 0)" stroke="rgb(204, 204, 204)" stroke-width="1px"></line><line x1="50" y1="342.72727272727275" x2="45" y2="342.72727272727275" style="visibility: inherit;" fill="rgb(0, 0, 0)" stroke="rgb(204, 204, 204)" stroke-width="1px"></line><line x1="50" y1="308.45454545454544" x2="45" y2="308.45454545454544" style="visibility: inherit;" fill="rgb(0, 0, 0)" stroke="rgb(204, 204, 204)" stroke-width="1px"></line><line x1="50" y1="274.1818181818182" x2="45" y2="274.1818181818182" style="visibility: inherit;" fill="rgb(0, 0, 0)" stroke="rgb(204, 204, 204)" stroke-width="1px"></line><line x1="50" y1="239.90909090909093" x2="45" y2="239.90909090909093" style="visibility: inherit;" fill="rgb(0, 0, 0)" stroke="rgb(204, 204, 204)" stroke-width="1px"></line><line x1="50" y1="205.63636363636363" x2="45" y2="205.63636363636363" style="visibility: inherit;" fill="rgb(0, 0, 0)" stroke="rgb(204, 204, 204)" stroke-width="1px"></line><line x1="50" y1="171.36363636363635" x2="45" y2="171.36363636363635" style="visibility: inherit;" fill="rgb(0, 0, 0)" stroke="rgb(204, 204, 204)" stroke-width="1px"></line><line x1="50" y1="137.09090909090915" x2="45" y2="137.09090909090915" style="visibility: inherit;" fill="rgb(0, 0, 0)" stroke="rgb(204, 204, 204)" stroke-width="1px"></line><line x1="50" y1="102.81818181818181" x2="45" y2="102.81818181818181" style="visibility: inherit;" fill="rgb(0, 0, 0)" stroke="rgb(204, 204, 204)" stroke-width="1px"></line><line x1="50" y1="68.54545454545453" x2="45" y2="68.54545454545453" style="visibility: inherit;" fill="rgb(0, 0, 0)" stroke="rgb(204, 204, 204)" stroke-width="1px"></line><line x1="50" y1="34.27272727272729" x2="45" y2="34.27272727272729" style="visibility: inherit;" fill="rgb(0, 0, 0)" stroke="rgb(204, 204, 204)" stroke-width="1px"></line><line x1="50" y1="0" x2="45" y2="0" style="visibility: inherit;" fill="rgb(0, 0, 0)" stroke="rgb(204, 204, 204)" stroke-width="1px"></line></g><g transform="translate(40, 0)"><text x="0" y="377" dx="0em" dy="0.3em" style="text-anchor: end; visibility: hidden; font-family: Roboto, sans-serif; font-size: 12px; font-weight: 200;" fill="rgb(255, 255, 255)" stroke="none" stroke-width="1px">0.08</text><text x="0" y="342.72727272727275" dx="0em" dy="0.3em" style="text-anchor: end; visibility: inherit; font-family: Roboto, sans-serif; font-size: 12px; font-weight: 200;" fill="rgb(255, 255, 255)" stroke="none" stroke-width="1px">0.09</text><text x="0" y="308.45454545454544" dx="0em" dy="0.3em" style="text-anchor: end; visibility: inherit; font-family: Roboto, sans-serif; font-size: 12px; font-weight: 200;" fill="rgb(255, 255, 255)" stroke="none" stroke-width="1px">0.1</text><text x="0" y="274.1818181818182" dx="0em" dy="0.3em" style="text-anchor: end; visibility: inherit; font-family: Roboto, sans-serif; font-size: 12px; font-weight: 200;" fill="rgb(255, 255, 255)" stroke="none" stroke-width="1px">0.11</text><text x="0" y="239.90909090909093" dx="0em" dy="0.3em" style="text-anchor: end; visibility: inherit; font-family: Roboto, sans-serif; font-size: 12px; font-weight: 200;" fill="rgb(255, 255, 255)" stroke="none" stroke-width="1px">0.12</text><text x="0" y="205.63636363636363" dx="0em" dy="0.3em" style="text-anchor: end; visibility: inherit; font-family: Roboto, sans-serif; font-size: 12px; font-weight: 200;" fill="rgb(255, 255, 255)" stroke="none" stroke-width="1px">0.13</text><text x="0" y="171.36363636363635" dx="0em" dy="0.3em" style="text-anchor: end; visibility: inherit; font-family: Roboto, sans-serif; font-size: 12px; font-weight: 200;" fill="rgb(255, 255, 255)" stroke="none" stroke-width="1px">0.14</text><text x="0" y="137.09090909090915" dx="0em" dy="0.3em" style="text-anchor: end; visibility: inherit; font-family: Roboto, sans-serif; font-size: 12px; font-weight: 200;" fill="rgb(255, 255, 255)" stroke="none" stroke-width="1px">0.15</text><text x="0" y="102.81818181818181" dx="0em" dy="0.3em" style="text-anchor: end; visibility: inherit; font-family: Roboto, sans-serif; font-size: 12px; font-weight: 200;" fill="rgb(255, 255, 255)" stroke="none" stroke-width="1px">0.16</text><text x="0" y="68.54545454545453" dx="0em" dy="0.3em" style="text-anchor: end; visibility: inherit; font-family: Roboto, sans-serif; font-size: 12px; font-weight: 200;" fill="rgb(255, 255, 255)" stroke="none" stroke-width="1px">0.17</text><text x="0" y="34.27272727272729" dx="0em" dy="0.3em" style="text-anchor: end; visibility: inherit; font-family: Roboto, sans-serif; font-size: 12px; font-weight: 200;" fill="rgb(255, 255, 255)" stroke="none" stroke-width="1px">0.18</text><text x="0" y="0" dx="0em" dy="0.3em" style="text-anchor: end; visibility: hidden; font-family: Roboto, sans-serif; font-size: 12px; font-weight: 200;" fill="rgb(255, 255, 255)" stroke="none" stroke-width="1px">0.19</text></g><line x1="50" y1="0" x2="50" y2="377" fill="rgb(0, 0, 0)" stroke="rgb(204, 204, 204)" stroke-width="1px"></line></g></g><g transform="translate(50, 0)" clip-path="url(#clip_0)"><clipPath id="clip_0"><rect width="1390" height="377"></rect></clipPath><g><g><g><line x1="0" y1="0" x2="0" y2="377" fill="rgb(0, 0, 0)" stroke="rgb(189, 189, 189)" stroke-width="1px" opacity="0.25"></line><line x1="126.37181818181818" y1="0" x2="126.37181818181818" y2="377" fill="rgb(0, 0, 0)" stroke="rgb(189, 189, 189)" stroke-width="1px" opacity="0.25"></line><line x1="252.74363636363637" y1="0" x2="252.74363636363637" y2="377" fill="rgb(0, 0, 0)" stroke="rgb(189, 189, 189)" stroke-width="1px" opacity="0.25"></line><line x1="379.1154545454545" y1="0" x2="379.1154545454545" y2="377" fill="rgb(0, 0, 0)" stroke="rgb(189, 189, 189)" stroke-width="1px" opacity="0.25"></line><line x1="505.48727272727274" y1="0" x2="505.48727272727274" y2="377" fill="rgb(0, 0, 0)" stroke="rgb(189, 189, 189)" stroke-width="1px" opacity="0.25"></line><line x1="631.8590909090908" y1="0" x2="631.8590909090908" y2="377" fill="rgb(0, 0, 0)" stroke="rgb(189, 189, 189)" stroke-width="1px" opacity="0.25"></line><line x1="758.230909090909" y1="0" x2="758.230909090909" y2="377" fill="rgb(0, 0, 0)" stroke="rgb(189, 189, 189)" stroke-width="1px" opacity="0.25"></line><line x1="884.6027272727272" y1="0" x2="884.6027272727272" y2="377" fill="rgb(0, 0, 0)" stroke="rgb(189, 189, 189)" stroke-width="1px" opacity="0.25"></line><line x1="1010.9745454545455" y1="0" x2="1010.9745454545455" y2="377" fill="rgb(0, 0, 0)" stroke="rgb(189, 189, 189)" stroke-width="1px" opacity="0.25"></line><line x1="1137.3463636363635" y1="0" x2="1137.3463636363635" y2="377" fill="rgb(0, 0, 0)" stroke="rgb(189, 189, 189)" stroke-width="1px" opacity="0.25"></line><line x1="1263.7181818181816" y1="0" x2="1263.7181818181816" y2="377" fill="rgb(0, 0, 0)" stroke="rgb(189, 189, 189)" stroke-width="1px" opacity="0.25"></line><line x1="1390.09" y1="0" x2="1390.09" y2="377" fill="rgb(0, 0, 0)" stroke="rgb(189, 189, 189)" stroke-width="1px" opacity="0.25"></line></g><g><line x1="0" y1="377" x2="1390.09" y2="377" fill="rgb(0, 0, 0)" stroke="rgb(189, 189, 189)" stroke-width="1px" opacity="0.25"></line><line x1="0" y1="342.72727272727275" x2="1390.09" y2="342.72727272727275" fill="rgb(0, 0, 0)" stroke="rgb(189, 189, 189)" stroke-width="1px" opacity="0.25"></line><line x1="0" y1="308.45454545454544" x2="1390.09" y2="308.45454545454544" fill="rgb(0, 0, 0)" stroke="rgb(189, 189, 189)" stroke-width="1px" opacity="0.25"></line><line x1="0" y1="274.1818181818182" x2="1390.09" y2="274.1818181818182" fill="rgb(0, 0, 0)" stroke="rgb(189, 189, 189)" stroke-width="1px" opacity="0.25"></line><line x1="0" y1="239.90909090909093" x2="1390.09" y2="239.90909090909093" fill="rgb(0, 0, 0)" stroke="rgb(189, 189, 189)" stroke-width="1px" opacity="0.25"></line><line x1="0" y1="205.63636363636363" x2="1390.09" y2="205.63636363636363" fill="rgb(0, 0, 0)" stroke="rgb(189, 189, 189)" stroke-width="1px" opacity="0.25"></line><line x1="0" y1="171.36363636363635" x2="1390.09" y2="171.36363636363635" fill="rgb(0, 0, 0)" stroke="rgb(189, 189, 189)" stroke-width="1px" opacity="0.25"></line><line x1="0" y1="137.09090909090915" x2="1390.09" y2="137.09090909090915" fill="rgb(0, 0, 0)" stroke="rgb(189, 189, 189)" stroke-width="1px" opacity="0.25"></line><line x1="0" y1="102.81818181818181" x2="1390.09" y2="102.81818181818181" fill="rgb(0, 0, 0)" stroke="rgb(189, 189, 189)" stroke-width="1px" opacity="0.25"></line><line x1="0" y1="68.54545454545453" x2="1390.09" y2="68.54545454545453" fill="rgb(0, 0, 0)" stroke="rgb(189, 189, 189)" stroke-width="1px" opacity="0.25"></line><line x1="0" y1="34.27272727272729" x2="1390.09" y2="34.27272727272729" fill="rgb(0, 0, 0)" stroke="rgb(189, 189, 189)" stroke-width="1px" opacity="0.25"></line><line x1="0" y1="0" x2="1390.09" y2="0" fill="rgb(0, 0, 0)" stroke="rgb(189, 189, 189)" stroke-width="1px" opacity="0.25"></line></g></g></g><g><g><line x1="0" y1="651.1818181818182" x2="1390.09" y2="651.1818181818182" fill="rgb(0, 0, 0)" stroke="rgb(153, 153, 153)" stroke-width="1.5px"></line></g></g><g><g><line x1="126.37181818181818" y1="0" x2="126.37181818181818" y2="377" fill="rgb(0, 0, 0)" stroke="rgb(153, 153, 153)" stroke-width="1.5px"></line></g></g><g><g><g><g><g><path stroke="rgb(255, 112, 67)" stroke-width="2px" d="M126.37181818181818,335.87272665988314L128.89925454545454,331.58864302831614L131.4266909090909,332.02578790521807L133.95412727272725,325.91851121663336L136.48156363636363,328.74941673815067L139.009,328.862188669888L141.53643636363637,327.51599362699466L144.06387272727272,330.91579037021665L146.59130909090908,325.9944196767207L149.11874545454543,324.4527835232127L151.64618181818182,326.2855966457285L154.17361818181817,326.00711706862734L156.70105454545455,325.84041779096515L159.2284909090909,327.11252469026755L161.75592727272726,329.24669706478306L164.28336363636362,326.41267213076674L166.81079999999997,321.9704912429052L169.33823636363636,331.6450933552063L171.86567272727274,333.3362497293379L174.3931090909091,328.86703983768695L176.92054545454542,328.9275023687261L179.4479818181818,335.8184081778039L181.97541818181818,334.4692130464981L184.50285454545454,332.2887946359953L187.0302909090909,330.98055020197097L189.55772727272725,332.93742412320523L192.08516363636363,329.9988167369014L194.61260000000001,332.34838214894864L197.14003636363634,326.9035688155352L199.66747272727272,326.3785064438581L202.19490909090908,326.06346909514156L204.72234545454546,329.9871724333125L207.2497818181818,332.34139423635946L209.77721818181817,332.38301533782567L212.30465454545455,328.29526253390287L214.83209090909088,334.0680719821097L217.35952727272726,343.0153846952682L219.88696363636362,338.78740959627913L222.4144,337.6215364191233L224.94183636363633,336.9220125144921L227.4692727272727,337.8732100425472L229.9967090909091,337.0730166890965L232.52414545454545,339.33472441633575L235.0515818181818,337.94992531351477L237.57901818181816,337.1190458519757L240.10645454545454,336.62051817510763L242.63389090909092,329.46685243714L245.16132727272725,330.6582902571282L247.68876363636363,331.37315294910405L250.2162,331.8020705642833L252.74363636363637,344.3976075275332L255.2710727272727,332.762204393762L257.7985090909091,318.92641338189884L260.32594545454543,332.55948782471705L262.8533818181818,333.8847833587843L265.3808181818182,333.30904881008786L267.9082545454545,346.6727063440935L270.4356909090909,331.3854399454585L272.96312727272726,334.5512665003644L275.4905636363636,322.7416743841555L278.018,312.9140953761588L280.5454363636363,312.50118523383554L283.07287272727274,297.1734392301539L285.60030909090904,311.2822423329099L288.12774545454545,303.2966226212088L290.6551818181818,299.87615244925536L293.18261818181816,301.9366059534906L295.71005454545457,304.5437797110988L298.23749090909087,297.88263317898645L300.7649272727273,276.06413181722866L303.29236363636363,282.16574609773147L305.8198,296.79398919098196L308.34723636363634,282.2654843419676L310.8746727272727,287.2574694817106L313.4021090909091,282.0272097788792L315.9295454545454,309.0490537937552L318.4569818181818,304.69852302191896L320.98441818181817,280.15365550891954L323.5118545454545,285.9903721818818L326.0392909090909,285.3796767923205L328.56672727272723,285.0132595585836L331.09416363636365,277.9388600867314L333.62159999999994,284.66149492856886L336.14903636363636,283.21143857119694L338.6764727272727,287.82504201924826L341.20390909090906,275.51321438386015L343.7313454545455,269.4970194576945L346.2587818181818,250.80730258370755L348.7862181818182,253.30256050846714L351.31365454545454,239.71971534503544L353.84109090909084,239.7954692477223L356.36852727272725,252.17909776935042L358.8959636363636,245.90018683317552L361.4234,250.3582910581479L363.95083636363637,264.0004281180801L366.47827272727267,239.28389699326175L369.0057090909091,221.7121545800991L371.53314545454543,201.57274647638857L374.0605818181818,199.08546426997526L376.5880181818182,189.36764415945L379.1154545454545,176.68241317559327L381.64289090909085,203.34398960112415L384.17032727272726,250.87184716215333L386.6977636363636,239.63219920638292L389.22520000000003,223.2920477771076L391.7526363636363,223.08431957535547L394.2800727272727,235.29786904838878L396.8075090909091,246.73872412554738L399.33494545454545,238.5232372535551L401.86238181818175,236.3357586545626L404.38981818181816,228.1687223635569L406.9172545454545,217.78487354054786L409.4446909090909,206.0709167701992L411.9721272727273,205.8971020536689L414.4995636363636,203.0509894854792L417.027,195.85967446802235L419.55443636363634,194.28670919581972L422.0818727272727,198.82657750904121L424.6093090909091,216.6304882011929L427.1367454545454,235.53829561722983L429.66418181818176,216.72297001620845L432.19161818181817,217.77196104968021L434.7190545454545,225.25590480137348L437.24649090909094,217.40809487237348L439.77392727272724,204.47395812829626L442.3013636363636,215.90619117940727L444.8288,173.41279564780422L447.35623636363636,186.30222938023195L449.88367272727265,161.13406604484214L452.41110909090906,183.04770679772463L454.9385454545454,193.45408793931998L457.46598181818183,183.2469946227853L459.9934181818182,192.20274876522058L462.5208545454545,212.6561909549005L465.0482909090909,209.84826656448973L467.57572727272725,197.19623740529437L470.1031636363636,190.97593177891306L472.6306,213.29101263225172L475.1580363636363,214.34187475017043L477.68547272727267,195.77966670929558L480.2129090909091,195.60961640971948L482.74034545454543,183.16942026402657L485.26778181818185,190.7852922808296L487.79521818181814,165.19481565433648L490.3226545454545,173.14599059747403L492.8500909090909,182.02941074262645L495.37752727272726,184.61763909144648L497.90496363636356,188.91239983900994L500.4324,191.48925628754802L502.9598363636363,179.32629232158794L505.48727272727274,187.1085036462306L508.0147090909091,176.69782030866006L510.5421454545454,174.56414591352507L513.0695818181817,134.89849065319186L515.5970181818182,175.53182256348046L518.1244545454546,157.41364569306282L520.6518909090909,131.46272943845602L523.1793272727272,135.084904997318L525.7067636363636,142.74185780917833L528.2342,145.96511762715872L530.7616363636364,138.302710862134L533.2890727272727,139.1888938515249L535.816509090909,142.46242738343096L538.3439454545454,147.16837124084623L540.8713818181818,160.95921208024404L543.3988181818182,126.73553035322324L545.9262545454545,136.3613211535857L548.4536909090908,136.65314815726012L550.9811272727272,146.42460701527784L553.5085636363636,167.36749246244463L556.036,175.82048812333736L558.5634363636364,158.95773646997537L561.0908727272727,150.21099734709395L563.6183090909091,153.18842508817966L566.1457454545455,156.34577317382954L568.6731818181818,166.46565324003404L571.2006181818181,157.45757114740067L573.7280545454545,134.2309084493303L576.2554909090909,127.14944974802961L578.7829272727273,128.38422200379222L581.3103636363636,115.41598709402945L583.8377999999999,151.50414424796708L586.3652363636363,141.626126834619L588.8926727272727,121.99021812338978L591.4201090909091,129.40139820827827L593.9475454545454,133.84810625921142L596.4749818181817,136.5161310897714L599.0024181818181,124.40786815302428L601.5298545454546,118.51382226011178L604.0572909090909,143.76648269180345L606.5847272727273,135.61261803178502L609.1121636363636,141.68757376072284L611.6396,115.17254736151054L614.1670363636364,118.4562568336093L616.6944727272727,123.16830625514011L619.221909090909,112.28643764483826L621.7493454545454,137.2882281843678L624.2767818181818,160.51475329476276L626.8042181818182,171.70884462272824L629.3316545454545,130.44348614044233L631.8590909090908,133.10244714937414L634.3865272727272,162.1160202811739L636.9139636363636,180.8950760293895L639.4414,167.4861366901497L641.9688363636363,144.36078338238713L644.4962727272726,125.00192392118643L647.023709090909,142.17569621190523L649.5511454545455,163.44723411128524L652.0785818181818,162.5010585876929L654.6060181818181,148.2242754384544L657.1334545454545,131.4327547622341L659.6608909090909,129.5832931431792L662.1883272727273,133.95724322015198L664.7157636363636,142.06526074287873L667.2431999999999,152.41369830492047L669.7706363636363,153.13913379373983L672.2980727272727,149.46165947962416L674.8255090909091,139.02972410447745L677.3529454545454,139.625101796931L679.8803818181817,152.32051480648755L682.4078181818181,140.7450373005955L684.9352545454545,152.9924761086864L687.462690909091,156.22820378613352L689.9901272727272,165.0241997382807L692.5175636363635,151.10907199794292L695.045,150.9854461404175L697.5724363636364,181.07127046247726L700.0998727272727,163.4791177425951L702.6273090909091,148.81111093139577L705.1547454545455,152.3484932387607L707.6821818181817,138.0200006216879L710.2096181818181,115.71382721636111L712.7370545454545,129.74829927146843L715.2644909090908,154.61988407788743L717.7919272727272,151.72102151924852L720.3193636363636,170.54534116482702L722.8468,116.03630623061852L725.3742363636363,127.19996294175137L727.9016727272727,120.18905870521074L730.4291090909092,110.49888911488055L732.9565454545453,123.87751267230854L735.4839818181817,123.67923602008808L738.0114181818182,127.6730056361631L740.5388545454545,138.29471819248542L743.0662909090909,124.10410854551695L745.5937272727273,121.07336980574166L748.1211636363636,126.10946547941792L750.6486,134.6147703601668L753.1760363636364,152.0561396827007L755.7034727272726,155.66640193054218L758.230909090909,148.23619662343395L760.7583454545454,130.06899560408604L763.2857818181817,143.8450273525092L765.8132181818181,146.6270193531573L768.3406545454545,126.36166550364847L770.8680909090909,133.39517850556936L773.3955272727272,149.9534727008065L775.9229636363636,131.09936125050956L778.4504000000001,137.60870782282174L780.9778363636362,125.06341419285448L783.5052727272727,131.2453158499572L786.0327090909091,123.98718231927003L788.5601454545454,115.51958702158765L791.0875818181818,128.26084328546864L793.6150181818182,124.93832251884838L796.1424545454545,161.33026068212843L798.6698909090909,146.15088482598003L801.1973272727273,163.09052354145854L803.7247636363635,130.7561409682236L806.2521999999999,112.72640286528099L808.7796363636363,106.02129561092273L811.3070727272726,117.07822096252659L813.834509090909,133.30875925743925L816.3619454545454,127.96707210203073L818.8893818181818,122.02023607051407L821.4168181818181,123.93578192814718L823.9442545454546,111.37601117950676L826.471690909091,105.21106059945814L828.9991272727272,105.62482585883635L831.5265636363636,119.5821628495462L834.054,123.84384986470225L836.5814363636363,138.73902803974312L839.1088727272727,127.11249776400572L841.6363090909091,122.87840333683486L844.1637454545454,91.54885871309322L846.6911818181818,85.0893183329328L849.2186181818182,94.92269236805694L851.7460545454544,113.16088275507867L854.2734909090908,104.91107167566558L856.8009272727272,113.6702832912381L859.3283636363635,117.55489839144582L861.8557999999999,95.20929466340124L864.3832363636363,77.68921724730464L866.9106727272728,71.28988597691655L869.438109090909,77.04664987049678L871.9655454545455,81.87162007578067L874.4929818181819,90.25024967549408L877.0204181818181,96.64833930445785L879.5478545454545,90.89083042602307L882.0752909090909,97.03266732663799L884.6027272727272,88.37960350105973L887.1301636363636,96.89684304079567L889.6576,106.11992237204463L892.1850363636363,102.05740731498094L894.7124727272727,111.95808467482722L897.2399090909091,108.30212843492198L899.7673454545453,119.81763252606189L902.2947818181817,115.75968088393438L904.8222181818181,96.873987897166L907.3496545454544,115.70257194167982L909.8770909090908,116.03244784343934L912.4045272727273,118.97219712276664L914.9319636363637,105.6560365580068L917.4594,116.85908595891439L919.9868363636364,104.3881698596955L922.5142727272728,106.50198285597722L925.041709090909,105.02846734361202L927.5691454545454,105.51526990532865L930.0965818181818,96.21098878654556L932.6240181818181,83.77386076959687L935.1514545454545,84.53703474610495L937.6788909090909,75.3985764761968L940.2063272727272,87.73733538487954L942.7337636363636,95.14059073008909L945.2612,73.53525927991L947.7886363636362,70.16842306561557L950.3160727272726,68.1483213370389L952.843509090909,83.38718230138485L955.3709454545453,100.75594966666955L957.8983818181817,108.43538634756891L960.4258181818182,107.55942130770278L962.9532545454546,76.87384244720823L965.4806909090909,84.50975936007914L968.0081272727273,87.72039763866582L970.5355636363637,86.90495686754633L973.0629999999999,133.0266142429414L975.5904363636363,157.95778492990695L978.1178727272726,142.7564875055114L980.645309090909,129.5229734434667L983.1727454545454,103.76105156374958L985.7001818181818,104.75482043741118L988.2276181818181,95.75469867765779L990.7550545454545,83.5000867042643L993.2824909090909,88.48550591431271L995.8099272727271,98.33129635788326L998.3373636363635,74.07879121558807L1000.8648,84.20364049024283L1003.3922363636362,73.82764848168108L1005.9196727272727,86.79475816003279L1008.4471090909091,76.75321052455348L1010.9745454545455,88.55011581389358L1013.5019818181818,92.88643524922614L1016.0294181818182,109.19730474550862L1018.5568545454546,94.30747408324632L1021.0842909090908,88.11539942416043L1023.6117272727272,83.02924275957314L1026.1391636363635,81.34846062995652L1028.6666,77.59816761391497L1031.1940363636363,64.38071727934125L1033.7214727272726,59.192070816868636L1036.2489090909091,90.35159795522986L1038.7763454545454,111.78913797651819L1041.3037818181817,110.94256372607082L1043.831218181818,88.50009055404216L1046.3586545454543,83.26005743750216L1048.8860909090909,88.34148835425553L1051.4135272727272,77.68124864108712L1053.9409636363637,71.285104813186L1056.4684,68.81833038558118L1058.9958363636363,78.30554025396705L1061.5232727272728,79.88515099572865L1064.050709090909,67.12381917756531L1066.5781454545454,78.6597453982933L1069.1055818181817,59.53403690156252L1071.633018181818,39.833140588709526L1074.1604545454545,60.91442637584417L1076.6878909090908,52.999560667363006L1079.215327272727,71.55610216130773L1081.7427636363636,75.83546771199573L1084.2702,61.9521854690539L1086.7976363636365,63.218578779101875L1089.3250727272728,62.60750289599496L1091.852509090909,69.0954167118096L1094.3799454545454,62.020890476349585L1096.9073818181816,68.74344926002246L1099.4348181818182,94.71153358012374L1101.9622545454545,69.16510981066072L1104.4896909090908,60.69179446652454L1107.0171272727273,69.3168830951258L1109.5445636363636,37.477417946307426L1112.072,54.01736574199716L1114.5994363636362,65.31222586040931L1117.1268727272727,88.54006393294858L1119.654309090909,88.76766851325173L1122.1817454545453,91.64605499970519L1124.7091818181818,74.18036157995112L1127.2366181818181,74.66822005304753L1129.7640545454544,79.07367074431275L1132.291490909091,88.5714800766133L1134.8189272727273,98.38288085526368L1137.3463636363635,111.12428066813268L1139.8737999999998,85.86729698100773L1142.4012363636361,87.16400834208716L1144.9286727272727,66.00748610883721L1147.456109090909,84.84448447459795L1149.9835454545455,82.43760565897145L1152.5109818181818,70.02620384464666L1155.038418181818,54.35389154123719L1157.5658545454546,49.06323976659888L1160.093290909091,37.6633979151386L1162.6207272727272,43.161679198346924L1165.1481636363635,49.20245127840614L1167.6755999999998,56.93965013384906L1170.2030363636363,53.356518660437494L1172.7304727272726,40.23936525144176L1175.257909090909,62.52907304261915L1177.7853454545454,62.193799454105246L1180.3127818181817,57.8799201217269L1182.8402181818183,31.986131603266614L1185.3676545454546,34.271671934680704L1187.8950909090909,49.35209439674947L1190.4225272727272,66.62579866066804L1192.9499636363635,56.42638403825738L1195.4774,53.04855900308248L1198.0048363636363,70.21458929360361L1200.5322727272726,98.33602091040666L1203.059709090909,90.53252752045667L1205.5871454545454,76.25406883067363L1208.1145818181817,81.39607145188677L1210.642018181818,55.69218505717556L1213.1694545454545,51.23712774529762L1215.6968909090908,49.93500522730659L1218.2243272727271,46.411907978240436L1220.7517636363636,45.668961497936564L1223.2792,45.223193609754226L1225.8066363636362,64.14845818847095L1228.3340727272728,72.7617931974294L1230.861509090909,66.96251967785565L1233.3889454545454,88.15932835428062L1235.9163818181817,72.08832559269648L1238.443818181818,55.59116459006708L1240.9712545454545,70.36924077665864L1243.4986909090908,65.5270086535306L1246.0261272727273,47.541659247297595L1248.5535636363636,51.83043930777651L1251.081,32.46917872230375L1253.6084363636364,35.93241207523875L1256.1358727272727,28.413989431186728L1258.663309090909,36.24112223884018L1261.1907454545453,69.72648989087133L1263.7181818181816,55.544995466245155L1266.2456181818181,49.77790212160359L1268.7730545454544,40.834019066412985L1271.3004909090907,45.06405188911157L1273.8279272727273,31.15114958123886L1276.3553636363636,47.47978098468438L1278.8828,44.93877343266713L1281.4102363636364,55.75235529554136L1283.9376727272727,75.94958224834897L1286.465109090909,90.8097421583051L1288.9925454545453,77.79128905438111L1291.5199818181818,52.15840374953635L1294.047418181818,73.79323174888323L1296.5748545454544,42.90503044869613L1299.102290909091,35.33938419353277L1301.6297272727272,54.105436931330715L1304.1571636363635,62.62326526387529L1306.6845999999998,63.62122665599474L1309.2120363636361,62.84909162213069L1311.7394727272726,62.38583102994951L1314.266909090909,53.88240345982631L1316.7943454545455,80.311258623463L1319.3217818181818,71.49219893347583L1321.849218181818,73.0553224651623L1324.3766545454546,64.39683392836123L1326.9040909090909,56.459917068009055L1329.4315272727272,37.98866868857739L1331.9589636363635,47.469577269817535L1334.4863999999998,57.27083759783162L1337.0138363636363,59.038858187232776L1339.5412727272726,57.35786723073926L1342.0687090909091,54.978360787707395L1344.5961454545454,52.179745052752494L1347.1235818181817,71.06421279254148" style="fill: none;" fill="none"></path></g></g></g></g><g opacity="0.2"><g><g><g><path stroke="rgb(255, 112, 67)" stroke-width="2px" d="M126.37181818181818,335.87272665988314L128.89925454545454,329.018192849376L131.4266909090909,332.44544698704374L133.95412727272725,318.73635383085775L136.48156363636363,332.44544698704374L139.009,329.018192849376L141.53643636363637,325.59091317653656L144.06387272727272,335.87272665988314L146.59130909090908,318.73635383085775L149.11874545454543,322.16363350369716L151.64618181818182,329.018192849376L154.17361818181817,325.59091317653656L156.70105454545455,325.59091317653656L159.2284909090909,329.018192849376L161.75592727272726,332.44544698704374L164.28336363636362,322.16363350369716L166.81079999999997,315.30909969319L169.33823636363636,346.1545401432298L171.86567272727274,335.87272665988314L174.3931090909091,322.16363350369716L176.92054545454542,329.018192849376L179.4479818181818,346.1545401432298L181.97541818181818,332.44544698704374L184.50285454545454,329.018192849376L187.0302909090909,329.018192849376L189.55772727272725,335.87272665988314L192.08516363636363,325.59091317653656L194.61260000000001,335.87272665988314L197.14003636363634,318.73635383085775L199.66747272727272,325.59091317653656L202.19490909090908,325.59091317653656L204.72234545454546,335.87272665988314L207.2497818181818,335.87272665988314L209.77721818181817,332.44544698704374L212.30465454545455,322.16363350369716L214.83209090909088,342.727286005562L217.35952727272726,356.4363536265763L219.88696363636362,332.44544698704374L222.4144,335.87272665988314L224.94183636363633,335.87272665988314L227.4692727272727,339.30000633272255L229.9967090909091,335.87272665988314L232.52414545454545,342.727286005562L235.0515818181818,335.87272665988314L237.57901818181816,335.87272665988314L240.10645454545454,335.87272665988314L242.63389090909092,318.73635383085775L245.16132727272725,332.44544698704374L247.68876363636363,332.44544698704374L250.2162,332.44544698704374L252.74363636363637,363.2909129722552L255.2710727272727,315.30909969319L257.7985090909091,298.17272686416453L260.32594545454543,353.0090994889086L262.8533818181818,335.87272665988314L265.3808181818182,332.44544698704374L267.9082545454545,366.7181926450946L270.4356909090909,308.4545403475111L272.96312727272726,339.30000633272255L275.4905636363636,305.0272862098434L278.018,298.17272686416453L280.5454363636363,311.8818200203506L283.07287272727274,274.1818202246319L285.60030909090904,332.44544698704374L288.12774545454545,291.31819305365735L290.6551818181818,294.74544719132507L293.18261818181816,305.0272862098434L295.71005454545457,308.4545403475111L298.23749090909087,287.89091338081795L300.7649272727273,243.33637977459216L303.29236363636363,291.31816751848567L305.8198,318.73635383085775L308.34723636363634,260.4727270684459L310.8746727272727,294.74544719132507L313.4021090909091,274.1818202246319L315.9295454545454,349.5818198160692L318.4569818181818,298.17272686416453L320.98441818181817,243.33635423942047L323.5118545454545,294.74544719132507L326.0392909090909,284.46363370797854L328.56672727272723,284.46363370797854L331.09416363636365,267.3272608789531L333.62159999999994,294.74544719132507L336.14903636363636,281.0363540351391L338.6764727272727,294.74544719132507L341.20390909090906,257.04547293077815L343.7313454545455,260.4727270684459L346.2587818181818,222.77272727272728L348.7862181818182,257.04544739560646L351.31365454545454,219.34544759988785L353.84109090909084,239.9091001017527L356.36852727272725,270.7545405517925L358.8959636363636,236.4818204289133L361.4234,257.04544739560646L363.95083636363637,284.46363370797854L366.47827272727267,202.2091003060341L369.0057090909091,195.35454096035522L371.53314545454543,171.36363432082263L374.0605818181818,195.35454096035522L376.5880181818182,174.79091399366206L379.1154545454545,157.6545666998083L381.64289090909085,243.33635423942047L384.17032727272726,322.16363350369716L386.6977636363636,222.77272727272728L389.22520000000003,198.78182063319468L391.7526363636363,222.77272727272728L394.2800727272727,253.61819325793874L396.8075090909091,263.9000067412853L399.33494545454545,226.2000069455667L401.86238181818175,233.05454075607386L404.38981818181816,215.91816792704844L406.9172545454545,202.2091003060341L409.4446909090909,188.4999816146764L411.9721272727273,205.63637997887352L414.4995636363636,198.78182063319468L417.027,185.07270194183698L419.55443636363634,191.92726128751582L422.0818727272727,205.63637997887352L424.6093090909091,243.33635423942047L427.1367454545454,263.9000067412853L429.66418181818176,188.4999816146764L432.19161818181817,219.34544759988785L434.7190545454545,236.4818204289133L437.24649090909094,205.63637997887352L439.77392727272724,185.07275301218033L442.3013636363636,233.05454075607386L444.8288,109.6727023503997L447.35623636363636,205.63637997887352L449.88367272727265,123.3818210417574L452.41110909090906,215.91816792704844L454.9385454545454,209.06365965171295L457.46598181818183,167.93635464798322L459.9934181818182,205.63637997887352L462.5208545454545,243.33635423942047L465.0482909090909,205.63637997887352L467.57572727272725,178.2181936665015L470.1031636363636,181.6454733393409L472.6306,246.76363391225988L475.1580363636363,215.91816792704844L477.68547272727267,167.93635464798322L480.2129090909091,195.35454096035522L482.74034545454543,164.50912604548714L485.26778181818185,202.2091003060341L487.79521818181814,126.80910071459684L490.3226545454545,185.07275301218033L492.8500909090909,195.35454096035522L495.37752727272726,188.4999816146764L497.90496363636356,195.35454096035522L500.4324,195.35454096035522L502.9598363636363,161.08184637264773L505.48727272727274,198.78182063319468L508.0147090909091,161.08179530230436L510.5421454545454,171.36363432082263L513.0695818181817,75.40000776269218L515.5970181818182,236.4818204289133L518.1244545454546,130.23638038743627L520.6518909090909,92.53635505654594L523.1793272727272,140.51816833561116L525.7067636363636,154.22728702696887L528.2342,150.80000735412946L530.7616363636364,126.80910071459684L533.2890727272727,140.51816833561116L535.816509090909,147.37272768129003L538.3439454545454,154.22728702696887L540.8713818181818,181.6454733393409L543.3988181818182,75.40000776269218L545.9262545454545,150.80000735412946L548.4536909090908,137.09088866277176L550.9811272727272,161.08179530230436L553.5085636363636,198.78182063319468L556.036,188.4999816146764L558.5634363636364,133.66360898993233L561.0908727272727,137.09088866277176L563.6183090909091,157.6545666998083L566.1457454545455,161.08179530230436L568.6731818181818,181.6454733393409L571.2006181818181,143.9454480084506L573.7280545454545,99.39091440222481L576.2554909090909,116.52726169607857L578.7829272727273,130.23638038743627L581.3103636363636,95.96363472938538L583.8377999999999,205.63637997887352L586.3652363636363,126.80910071459684L588.8926727272727,92.53635505654594L591.4201090909091,140.51816833561116L593.9475454545454,140.51816833561116L596.4749818181817,140.51816833561116L599.0024181818181,106.24547374790365L601.5298545454546,109.67275342074308L604.0572909090909,181.6454733393409L606.5847272727273,123.3818210417574L609.1121636363636,150.80000735412946L611.6396,75.40000776269218L614.1670363636364,123.3818210417574L616.6944727272727,130.23638038743627L619.221909090909,95.96363472938538L621.7493454545454,174.79091399366206L624.2767818181818,195.35454096035522L626.8042181818182,188.4999816146764L629.3316545454545,68.54544841701335L631.8590909090908,137.09088866277176L634.3865272727272,205.63637997887352L636.9139636363636,209.06365965171295L639.4414,147.37272768129003L641.9688363636363,109.67275342074308L644.4962727272726,95.96363472938538L647.023709090909,167.93635464798322L649.5511454545455,195.35454096035522L652.0785818181818,161.08179530230436L654.6060181818181,126.80910071459684L657.1334545454545,106.24547374790365L659.6608909090909,126.80910071459684L662.1883272727273,140.51816833561116L664.7157636363636,154.22728702696887L667.2431999999999,167.93635464798322L669.7706363636363,154.22728702696887L672.2980727272727,143.9454480084506L674.8255090909091,123.3818210417574L677.3529454545454,140.51816833561116L679.8803818181817,171.36363432082263L682.4078181818181,123.3818210417574L684.9352545454545,171.36363432082263L687.462690909091,161.08179530230436L689.9901272727272,178.2181936665015L692.5175636363635,130.23638038743627L695.045,150.80000735412946L697.5724363636364,226.2000069455667L700.0998727272727,137.09088866277176L702.6273090909091,126.80910071459684L705.1547454545455,157.6545666998083L707.6821818181817,116.52726169607857L710.2096181818181,82.25456710837105L712.7370545454545,150.80000735412946L715.2644909090908,191.92726128751582L717.7919272727272,147.37272768129003L720.3193636363636,198.78182063319468L722.8468,34.27275382930583L725.3742363636363,143.9454480084506L727.9016727272727,109.6727023503997L730.4291090909092,95.96363472938538L732.9565454545453,143.9454480084506L735.4839818181817,123.3818210417574L738.0114181818182,133.6636600602757L740.5388545454545,154.22728702696887L743.0662909090909,102.81819407506426L745.5937272727273,116.52726169607857L748.1211636363636,133.66360898993233L750.6486,147.37272768129003L753.1760363636364,178.2181936665015L755.7034727272726,161.08179530230436L758.230909090909,137.09088866277176L760.7583454545454,102.81819407506426L763.2857818181817,164.5090749751438L765.8132181818181,150.80000735412946L768.3406545454545,95.96363472938538L770.8680909090909,143.9454480084506L773.3955272727272,174.79091399366206L775.9229636363636,102.81819407506426L778.4504000000001,147.37272768129003L780.9778363636362,106.24547374790365L783.5052727272727,140.51816833561116L786.0327090909091,113.09998202323914L788.5601454545454,102.81819407506426L791.0875818181818,147.37272768129003L793.6150181818182,119.95454136891802L796.1424545454545,215.91816792704844L798.6698909090909,123.3818210417574L801.1973272727273,188.4999816146764L803.7247636363635,82.25456710837105L806.2521999999999,85.6817957108671L808.7796363636363,95.96363472938538L811.3070727272726,133.66360898993233L813.834509090909,157.6545666998083L816.3619454545454,119.95454136891802L818.8893818181818,113.09998202323914L821.4168181818181,126.80910071459684L823.9442545454546,92.53635505654594L826.471690909091,95.96363472938538L828.9991272727272,106.24547374790365L831.5265636363636,140.51816833561116L834.054,130.23638038743627L836.5814363636363,161.08179530230436L839.1088727272727,109.6727023503997L841.6363090909091,116.52726169607857L844.1637454545454,44.55454177748076L846.6911818181818,75.40000776269218L849.2186181818182,109.67275342074308L851.7460545454544,140.51816833561116L854.2734909090908,92.53635505654594L856.8009272727272,126.80910071459684L859.3283636363635,123.3818210417574L861.8557999999999,61.69088907133452L864.3832363636363,51.40910112315959L866.9106727272728,61.69088907133452L869.438109090909,85.6817957108671L871.9655454545455,89.10907538370654L874.4929818181819,102.81819407506426L877.0204181818181,106.24547374790365L879.5478545454545,82.25456710837105L882.0752909090909,106.2454226775603L884.6027272727272,75.40000776269218L887.1301636363636,109.6727023503997L889.6576,119.95454136891802L892.1850363636363,95.96363472938538L894.7124727272727,126.80910071459684L897.2399090909091,102.81819407506426L899.7673454545453,137.09088866277176L902.2947818181817,109.67275342074308L904.8222181818181,68.54544841701335L907.3496545454544,143.9454480084506L909.8770909090908,116.52726169607857L912.4045272727273,123.3818210417574L914.9319636363637,85.6817957108671L917.4594,133.6636600602757L919.9868363636364,85.6817957108671L922.5142727272728,109.6727023503997L925.041709090909,102.81819407506426L927.5691454545454,106.24547374790365L930.0965818181818,82.25456710837105L932.6240181818181,65.11816874417391L935.1514545454545,85.6817957108671L937.6788909090909,61.69088907133452L940.2063272727272,106.24547374790365L942.7337636363636,106.24547374790365L945.2612,41.127262104641325L947.7886363636362,65.11816874417391L950.3160727272726,65.11816874417391L952.843509090909,106.24547374790365L955.3709454545453,126.80910071459684L957.8983818181817,119.95454136891802L960.4258181818182,106.24547374790365L962.9532545454546,30.845474156466395L965.4806909090909,95.96363472938538L968.0081272727273,92.53635505654594L970.5355636363637,85.6817957108671L973.0629999999999,202.2091003060341L975.5904363636363,195.35454096035522L978.1178727272726,119.95454136891802L980.645309090909,109.6727023503997L983.1727454545454,65.11816874417391L985.7001818181818,106.24547374790365L988.2276181818181,82.25451603802767L990.7550545454545,65.11816874417391L993.2824909090909,95.96363472938538L995.8099272727271,113.09998202323914L998.3373636363635,37.70003350214527L1000.8648,99.39091440222481L1003.3922363636362,58.26366046883842L1005.9196727272727,106.2454226775603L1008.4471090909091,61.69088907133452L1010.9745454545455,106.24547374790365L1013.5019818181818,99.39091440222481L1016.0294181818182,133.66360898993233L1018.5568545454546,71.97272808985278L1021.0842909090908,78.82728743553162L1023.6117272727272,75.40000776269218L1026.1391636363635,78.82728743553162L1028.6666,71.97272808985278L1031.1940363636363,44.55454177748076L1033.7214727272726,51.40910112315959L1036.2489090909091,137.09088866277176L1038.7763454545454,143.9454480084506L1041.3037818181817,109.6727023503997L1043.831218181818,54.83638079599903L1046.3586545454543,75.40000776269218L1048.8860909090909,95.96363472938538L1051.4135272727272,61.69088907133452L1053.9409636363637,61.69088907133452L1056.4684,65.11816874417391L1058.9958363636363,92.53635505654594L1061.5232727272728,82.25456710837105L1064.050709090909,47.981821450320155L1066.5781454545454,95.96363472938538L1069.1055818181817,30.845474156466395L1071.633018181818,10.28179611942986L1074.1604545454545,92.53635505654594L1076.6878909090908,41.127262104641325L1079.215327272727,99.39091440222481L1081.7427636363636,82.25451603802767L1084.2702,41.127262104641325L1086.7976363636365,65.11816874417391L1089.3250727272728,61.69088907133452L1091.852509090909,78.82728743553162L1094.3799454545454,51.40910112315959L1096.9073818181816,78.82728743553162L1099.4348181818182,133.6636600602757L1101.9622545454545,30.845474156466395L1104.4896909090908,47.981821450320155L1107.0171272727273,82.25451603802767L1109.5445636363636,-10.281779776919956L1112.072,78.82728743553162L1114.5994363636362,82.25451603802767L1117.1268727272727,123.3818210417574L1119.654309090909,89.10907538370654L1122.1817454545453,95.96363472938538L1124.7091818181818,47.981821450320155L1127.2366181818181,75.40000776269218L1129.7640545454544,85.6818467812105L1132.291490909091,102.81819407506426L1134.8189272727273,113.09998202323914L1137.3463636363635,130.23638038743627L1139.8737999999998,47.981821450320155L1142.4012363636361,89.10907538370654L1144.9286727272727,34.27270275896245L1147.456109090909,113.09998202323914L1149.9835454545455,78.82728743553162L1152.5109818181818,51.40910112315959L1155.038418181818,30.845423086123056L1157.5658545454546,41.127262104641325L1160.093290909091,20.563635137948125L1162.6207272727272,51.40910112315959L1165.1481636363635,58.263609398495085L1167.6755999999998,68.54544841701335L1170.2030363636363,47.981821450320155L1172.7304727272726,20.563635137948125L1175.257909090909,95.96363472938538L1177.7853454545454,61.69088907133452L1180.3127818181817,51.40910112315959L1182.8402181818183,-6.854551174423942L1185.3676545454546,37.699982431801885L1187.8950909090909,71.97272808985278L1190.4225272727272,92.53635505654594L1192.9499636363635,41.127262104641325L1195.4774,47.981821450320155L1198.0048363636363,95.96363472938538L1200.5322727272726,140.51816833561116L1203.059709090909,78.82728743553162L1205.5871454545454,54.83638079599903L1208.1145818181817,89.10907538370654L1210.642018181818,17.13635546510869L1213.1694545454545,44.55454177748076L1215.6968909090908,47.981821450320155L1218.2243272727271,41.127262104641325L1220.7517636363636,44.55454177748076L1223.2792,44.55454177748076L1225.8066363636362,92.53635505654594L1228.3340727272728,85.6817957108671L1230.861509090909,58.263609398495085L1233.3889454545454,119.95454136891802L1235.9163818181817,47.981821450320155L1238.443818181818,30.845423086123056L1240.9712545454545,92.53635505654594L1243.4986909090908,58.26366046883842L1246.0261272727273,20.563635137948125L1248.5535636363636,58.263609398495085L1251.081,3.427287844094367L1253.6084363636364,41.127262104641325L1256.1358727272727,17.13635546510869L1258.663309090909,47.981821450320155L1261.1907454545453,119.95454136891802L1263.7181818181816,34.27275382930583L1266.2456181818181,41.127262104641325L1268.7730545454544,27.418194483626998L1271.3004909090907,51.40910112315959L1273.8279272727273,10.28179611942986L1276.3553636363636,71.97272808985278L1278.8828,41.127262104641325L1281.4102363636364,71.97272808985278L1283.9376727272727,106.2454226775603L1286.465109090909,113.09998202323914L1288.9925454545453,58.263609398495085L1291.5199818181818,13.709075792269296L1294.047418181818,106.24547374790365L1296.5748545454544,-3.427271501584464L1299.102290909091,23.99091481078756L1301.6297272727272,82.25451603802767L1304.1571636363635,75.40000776269218L1306.6845999999998,65.11816874417391L1309.2120363636361,61.69088907133452L1311.7394727272726,61.690940141677856L1314.266909090909,41.127262104641325L1316.7943454545455,119.95454136891802L1319.3217818181818,58.263609398495085L1321.849218181818,75.40000776269218L1324.3766545454546,51.40910112315959L1326.9040909090909,44.55454177748076L1329.4315272727272,10.28179611942986L1331.9589636363635,61.690940141677856L1334.4863999999998,71.97272808985278L1337.0138363636363,61.69088907133452L1339.5412727272726,54.83638079599903L1342.0687090909091,51.40910112315959L1344.5961454545454,47.981821450320155L1347.1235818181817,99.39091440222481" style="fill: none;" fill="none"></path></g></g></g></g></g></g><g transform="translate(50, 377)" clip-path="url(#clip_1)"><clipPath id="clip_1"><rect width="1390" height="23"></rect></clipPath><g><g><line x1="0" y1="0" x2="0" y2="5" style="visibility: inherit;" fill="rgb(0, 0, 0)" stroke="rgb(204, 204, 204)" stroke-width="1px"></line><line x1="126.37181818181818" y1="0" x2="126.37181818181818" y2="5" style="visibility: inherit;" fill="rgb(0, 0, 0)" stroke="rgb(204, 204, 204)" stroke-width="1px"></line><line x1="252.74363636363637" y1="0" x2="252.74363636363637" y2="5" style="visibility: inherit;" fill="rgb(0, 0, 0)" stroke="rgb(204, 204, 204)" stroke-width="1px"></line><line x1="379.1154545454545" y1="0" x2="379.1154545454545" y2="5" style="visibility: inherit;" fill="rgb(0, 0, 0)" stroke="rgb(204, 204, 204)" stroke-width="1px"></line><line x1="505.48727272727274" y1="0" x2="505.48727272727274" y2="5" style="visibility: inherit;" fill="rgb(0, 0, 0)" stroke="rgb(204, 204, 204)" stroke-width="1px"></line><line x1="631.8590909090908" y1="0" x2="631.8590909090908" y2="5" style="visibility: inherit;" fill="rgb(0, 0, 0)" stroke="rgb(204, 204, 204)" stroke-width="1px"></line><line x1="758.230909090909" y1="0" x2="758.230909090909" y2="5" style="visibility: inherit;" fill="rgb(0, 0, 0)" stroke="rgb(204, 204, 204)" stroke-width="1px"></line><line x1="884.6027272727272" y1="0" x2="884.6027272727272" y2="5" style="visibility: inherit;" fill="rgb(0, 0, 0)" stroke="rgb(204, 204, 204)" stroke-width="1px"></line><line x1="1010.9745454545455" y1="0" x2="1010.9745454545455" y2="5" style="visibility: inherit;" fill="rgb(0, 0, 0)" stroke="rgb(204, 204, 204)" stroke-width="1px"></line><line x1="1137.3463636363635" y1="0" x2="1137.3463636363635" y2="5" style="visibility: inherit;" fill="rgb(0, 0, 0)" stroke="rgb(204, 204, 204)" stroke-width="1px"></line><line x1="1263.7181818181816" y1="0" x2="1263.7181818181816" y2="5" style="visibility: inherit;" fill="rgb(0, 0, 0)" stroke="rgb(204, 204, 204)" stroke-width="1px"></line><line x1="1390.09" y1="0" x2="1390.09" y2="5" style="visibility: inherit;" fill="rgb(0, 0, 0)" stroke="rgb(204, 204, 204)" stroke-width="1px"></line></g><g transform="translate(0, 8)"><text x="0" y="0" dx="0em" dy="0.95em" style="text-anchor: middle; visibility: hidden; font-family: Roboto, sans-serif; font-size: 12px; font-weight: 200;" fill="rgb(255, 255, 255)" stroke="none" stroke-width="1px">-50</text><text x="126.37181818181818" y="0" dx="0em" dy="0.95em" style="text-anchor: middle; visibility: inherit; font-family: Roboto, sans-serif; font-size: 12px; font-weight: 200;" fill="rgb(255, 255, 255)" stroke="none" stroke-width="1px">0</text><text x="252.74363636363637" y="0" dx="0em" dy="0.95em" style="text-anchor: middle; visibility: inherit; font-family: Roboto, sans-serif; font-size: 12px; font-weight: 200;" fill="rgb(255, 255, 255)" stroke="none" stroke-width="1px">50</text><text x="379.1154545454545" y="0" dx="0em" dy="0.95em" style="text-anchor: middle; visibility: inherit; font-family: Roboto, sans-serif; font-size: 12px; font-weight: 200;" fill="rgb(255, 255, 255)" stroke="none" stroke-width="1px">100</text><text x="505.48727272727274" y="0" dx="0em" dy="0.95em" style="text-anchor: middle; visibility: inherit; font-family: Roboto, sans-serif; font-size: 12px; font-weight: 200;" fill="rgb(255, 255, 255)" stroke="none" stroke-width="1px">150</text><text x="631.8590909090908" y="0" dx="0em" dy="0.95em" style="text-anchor: middle; visibility: inherit; font-family: Roboto, sans-serif; font-size: 12px; font-weight: 200;" fill="rgb(255, 255, 255)" stroke="none" stroke-width="1px">200</text><text x="758.230909090909" y="0" dx="0em" dy="0.95em" style="text-anchor: middle; visibility: inherit; font-family: Roboto, sans-serif; font-size: 12px; font-weight: 200;" fill="rgb(255, 255, 255)" stroke="none" stroke-width="1px">250</text><text x="884.6027272727272" y="0" dx="0em" dy="0.95em" style="text-anchor: middle; visibility: inherit; font-family: Roboto, sans-serif; font-size: 12px; font-weight: 200;" fill="rgb(255, 255, 255)" stroke="none" stroke-width="1px">300</text><text x="1010.9745454545455" y="0" dx="0em" dy="0.95em" style="text-anchor: middle; visibility: inherit; font-family: Roboto, sans-serif; font-size: 12px; font-weight: 200;" fill="rgb(255, 255, 255)" stroke="none" stroke-width="1px">350</text><text x="1137.3463636363635" y="0" dx="0em" dy="0.95em" style="text-anchor: middle; visibility: inherit; font-family: Roboto, sans-serif; font-size: 12px; font-weight: 200;" fill="rgb(255, 255, 255)" stroke="none" stroke-width="1px">400</text><text x="1263.7181818181816" y="0" dx="0em" dy="0.95em" style="text-anchor: middle; visibility: inherit; font-family: Roboto, sans-serif; font-size: 12px; font-weight: 200;" fill="rgb(255, 255, 255)" stroke="none" stroke-width="1px">450</text><text x="1390.09" y="0" dx="0em" dy="0.95em" style="text-anchor: middle; visibility: hidden; font-family: Roboto, sans-serif; font-size: 12px; font-weight: 200;" fill="rgb(255, 255, 255)" stroke="none" stroke-width="1px">500</text></g><line x1="0" y1="0" x2="1390.09" y2="0" fill="rgb(0, 0, 0)" stroke="rgb(204, 204, 204)" stroke-width="1px"></line></g></g></g></g></svg>