<svg viewBox="0 0 1440.0909423828125 400" xmlns="http://www.w3.org/2000/svg"><g><g><g><g><g><line x1="50" y1="377" x2="45" y2="377" style="visibility: inherit;" fill="rgb(0, 0, 0)" stroke="rgb(204, 204, 204)" stroke-width="1px"></line><line x1="50" y1="339.30000000000086" x2="45" y2="339.30000000000086" style="visibility: inherit;" fill="rgb(0, 0, 0)" stroke="rgb(204, 204, 204)" stroke-width="1px"></line><line x1="50" y1="301.6" x2="45" y2="301.6" style="visibility: inherit;" fill="rgb(0, 0, 0)" stroke="rgb(204, 204, 204)" stroke-width="1px"></line><line x1="50" y1="263.90000000000083" x2="45" y2="263.90000000000083" style="visibility: inherit;" fill="rgb(0, 0, 0)" stroke="rgb(204, 204, 204)" stroke-width="1px"></line><line x1="50" y1="226.2" x2="45" y2="226.2" style="visibility: inherit;" fill="rgb(0, 0, 0)" stroke="rgb(204, 204, 204)" stroke-width="1px"></line><line x1="50" y1="188.50000000000082" x2="45" y2="188.50000000000082" style="visibility: inherit;" fill="rgb(0, 0, 0)" stroke="rgb(204, 204, 204)" stroke-width="1px"></line><line x1="50" y1="150.8" x2="45" y2="150.8" style="visibility: inherit;" fill="rgb(0, 0, 0)" stroke="rgb(204, 204, 204)" stroke-width="1px"></line><line x1="50" y1="113.10000000000085" x2="45" y2="113.10000000000085" style="visibility: inherit;" fill="rgb(0, 0, 0)" stroke="rgb(204, 204, 204)" stroke-width="1px"></line><line x1="50" y1="75.39999999999998" x2="45" y2="75.39999999999998" style="visibility: inherit;" fill="rgb(0, 0, 0)" stroke="rgb(204, 204, 204)" stroke-width="1px"></line><line x1="50" y1="37.70000000000083" x2="45" y2="37.70000000000083" style="visibility: inherit;" fill="rgb(0, 0, 0)" stroke="rgb(204, 204, 204)" stroke-width="1px"></line><line x1="50" y1="0" x2="45" y2="0" style="visibility: inherit;" fill="rgb(0, 0, 0)" stroke="rgb(204, 204, 204)" stroke-width="1px"></line></g><g transform="translate(40, 0)"><text x="0" y="377" dx="0em" dy="0.3em" style="text-anchor: end; visibility: hidden; font-family: Roboto, sans-serif; font-size: 12px; font-weight: 200;" fill="rgb(255, 255, 255)" stroke="none" stroke-width="1px">2.25</text><text x="0" y="339.30000000000086" dx="0em" dy="0.3em" style="text-anchor: end; visibility: inherit; font-family: Roboto, sans-serif; font-size: 12px; font-weight: 200;" fill="rgb(255, 255, 255)" stroke="none" stroke-width="1px">2.26</text><text x="0" y="301.6" dx="0em" dy="0.3em" style="text-anchor: end; visibility: inherit; font-family: Roboto, sans-serif; font-size: 12px; font-weight: 200;" fill="rgb(255, 255, 255)" stroke="none" stroke-width="1px">2.27</text><text x="0" y="263.90000000000083" dx="0em" dy="0.3em" style="text-anchor: end; visibility: inherit; font-family: Roboto, sans-serif; font-size: 12px; font-weight: 200;" fill="rgb(255, 255, 255)" stroke="none" stroke-width="1px">2.28</text><text x="0" y="226.2" dx="0em" dy="0.3em" style="text-anchor: end; visibility: inherit; font-family: Roboto, sans-serif; font-size: 12px; font-weight: 200;" fill="rgb(255, 255, 255)" stroke="none" stroke-width="1px">2.29</text><text x="0" y="188.50000000000082" dx="0em" dy="0.3em" style="text-anchor: end; visibility: inherit; font-family: Roboto, sans-serif; font-size: 12px; font-weight: 200;" fill="rgb(255, 255, 255)" stroke="none" stroke-width="1px">2.3</text><text x="0" y="150.8" dx="0em" dy="0.3em" style="text-anchor: end; visibility: inherit; font-family: Roboto, sans-serif; font-size: 12px; font-weight: 200;" fill="rgb(255, 255, 255)" stroke="none" stroke-width="1px">2.31</text><text x="0" y="113.10000000000085" dx="0em" dy="0.3em" style="text-anchor: end; visibility: inherit; font-family: Roboto, sans-serif; font-size: 12px; font-weight: 200;" fill="rgb(255, 255, 255)" stroke="none" stroke-width="1px">2.32</text><text x="0" y="75.39999999999998" dx="0em" dy="0.3em" style="text-anchor: end; visibility: inherit; font-family: Roboto, sans-serif; font-size: 12px; font-weight: 200;" fill="rgb(255, 255, 255)" stroke="none" stroke-width="1px">2.33</text><text x="0" y="37.70000000000083" dx="0em" dy="0.3em" style="text-anchor: end; visibility: inherit; font-family: Roboto, sans-serif; font-size: 12px; font-weight: 200;" fill="rgb(255, 255, 255)" stroke="none" stroke-width="1px">2.34</text><text x="0" y="0" dx="0em" dy="0.3em" style="text-anchor: end; visibility: hidden; font-family: Roboto, sans-serif; font-size: 12px; font-weight: 200;" fill="rgb(255, 255, 255)" stroke="none" stroke-width="1px">2.35</text></g><line x1="50" y1="0" x2="50" y2="377" fill="rgb(0, 0, 0)" stroke="rgb(204, 204, 204)" stroke-width="1px"></line></g></g><g transform="translate(50, 0)" clip-path="url(#clip_0)"><clipPath id="clip_0"><rect width="1390" height="377"></rect></clipPath><g><g><g><line x1="0" y1="0" x2="0" y2="377" fill="rgb(0, 0, 0)" stroke="rgb(189, 189, 189)" stroke-width="1px" opacity="0.25"></line><line x1="126.37181818181818" y1="0" x2="126.37181818181818" y2="377" fill="rgb(0, 0, 0)" stroke="rgb(189, 189, 189)" stroke-width="1px" opacity="0.25"></line><line x1="252.74363636363637" y1="0" x2="252.74363636363637" y2="377" fill="rgb(0, 0, 0)" stroke="rgb(189, 189, 189)" stroke-width="1px" opacity="0.25"></line><line x1="379.1154545454545" y1="0" x2="379.1154545454545" y2="377" fill="rgb(0, 0, 0)" stroke="rgb(189, 189, 189)" stroke-width="1px" opacity="0.25"></line><line x1="505.48727272727274" y1="0" x2="505.48727272727274" y2="377" fill="rgb(0, 0, 0)" stroke="rgb(189, 189, 189)" stroke-width="1px" opacity="0.25"></line><line x1="631.8590909090908" y1="0" x2="631.8590909090908" y2="377" fill="rgb(0, 0, 0)" stroke="rgb(189, 189, 189)" stroke-width="1px" opacity="0.25"></line><line x1="758.230909090909" y1="0" x2="758.230909090909" y2="377" fill="rgb(0, 0, 0)" stroke="rgb(189, 189, 189)" stroke-width="1px" opacity="0.25"></line><line x1="884.6027272727272" y1="0" x2="884.6027272727272" y2="377" fill="rgb(0, 0, 0)" stroke="rgb(189, 189, 189)" stroke-width="1px" opacity="0.25"></line><line x1="1010.9745454545455" y1="0" x2="1010.9745454545455" y2="377" fill="rgb(0, 0, 0)" stroke="rgb(189, 189, 189)" stroke-width="1px" opacity="0.25"></line><line x1="1137.3463636363635" y1="0" x2="1137.3463636363635" y2="377" fill="rgb(0, 0, 0)" stroke="rgb(189, 189, 189)" stroke-width="1px" opacity="0.25"></line><line x1="1263.7181818181816" y1="0" x2="1263.7181818181816" y2="377" fill="rgb(0, 0, 0)" stroke="rgb(189, 189, 189)" stroke-width="1px" opacity="0.25"></line><line x1="1390.09" y1="0" x2="1390.09" y2="377" fill="rgb(0, 0, 0)" stroke="rgb(189, 189, 189)" stroke-width="1px" opacity="0.25"></line></g><g><line x1="0" y1="377" x2="1390.09" y2="377" fill="rgb(0, 0, 0)" stroke="rgb(189, 189, 189)" stroke-width="1px" opacity="0.25"></line><line x1="0" y1="339.30000000000086" x2="1390.09" y2="339.30000000000086" fill="rgb(0, 0, 0)" stroke="rgb(189, 189, 189)" stroke-width="1px" opacity="0.25"></line><line x1="0" y1="301.6" x2="1390.09" y2="301.6" fill="rgb(0, 0, 0)" stroke="rgb(189, 189, 189)" stroke-width="1px" opacity="0.25"></line><line x1="0" y1="263.90000000000083" x2="1390.09" y2="263.90000000000083" fill="rgb(0, 0, 0)" stroke="rgb(189, 189, 189)" stroke-width="1px" opacity="0.25"></line><line x1="0" y1="226.2" x2="1390.09" y2="226.2" fill="rgb(0, 0, 0)" stroke="rgb(189, 189, 189)" stroke-width="1px" opacity="0.25"></line><line x1="0" y1="188.50000000000082" x2="1390.09" y2="188.50000000000082" fill="rgb(0, 0, 0)" stroke="rgb(189, 189, 189)" stroke-width="1px" opacity="0.25"></line><line x1="0" y1="150.8" x2="1390.09" y2="150.8" fill="rgb(0, 0, 0)" stroke="rgb(189, 189, 189)" stroke-width="1px" opacity="0.25"></line><line x1="0" y1="113.10000000000085" x2="1390.09" y2="113.10000000000085" fill="rgb(0, 0, 0)" stroke="rgb(189, 189, 189)" stroke-width="1px" opacity="0.25"></line><line x1="0" y1="75.39999999999998" x2="1390.09" y2="75.39999999999998" fill="rgb(0, 0, 0)" stroke="rgb(189, 189, 189)" stroke-width="1px" opacity="0.25"></line><line x1="0" y1="37.70000000000083" x2="1390.09" y2="37.70000000000083" fill="rgb(0, 0, 0)" stroke="rgb(189, 189, 189)" stroke-width="1px" opacity="0.25"></line><line x1="0" y1="0" x2="1390.09" y2="0" fill="rgb(0, 0, 0)" stroke="rgb(189, 189, 189)" stroke-width="1px" opacity="0.25"></line></g></g></g><g><g><line x1="0" y1="8859.499999999993" x2="1390.09" y2="8859.499999999993" fill="rgb(0, 0, 0)" stroke="rgb(153, 153, 153)" stroke-width="1.5px"></line></g></g><g><g><line x1="126.37181818181818" y1="0" x2="126.37181818181818" y2="377" fill="rgb(0, 0, 0)" stroke="rgb(153, 153, 153)" stroke-width="1.5px"></line></g></g><g><g><g><g><g><path stroke="rgb(255, 112, 67)" stroke-width="2px" d="M126.37181818181818,37.54302692413359L128.89925454545454,37.29865533113509L131.4266909090909,38.1318575606055L133.95412727272725,47.71377592928279L136.48156363636363,51.55557518746781L139.009,52.59169433650909L141.53643636363637,55.68310092488867L144.06387272727272,58.40641099461853L146.59130909090908,62.75730821744613L149.11874545454543,64.93412291911363L151.64618181818182,67.61956452278477L154.17361818181817,74.83727825331285L156.70105454545455,81.95436007053712L159.2284909090909,86.13553766776211L161.75592727272726,89.34356972343376L164.28336363636362,94.0510111910948L166.81079999999997,98.97862268706857L169.33823636363636,102.10473315005518L171.86567272727274,99.6701849390404L174.3931090909091,105.23260913427019L176.92054545454542,106.18796042334642L179.4479818181818,105.5088801393238L181.97541818181818,113.53763865099238L184.50285454545454,117.0170162955609L187.0302909090909,120.48704917154924L189.55772727272725,118.3200681373895L192.08516363636363,120.04249754797122L194.61260000000001,120.60711985482344L197.14003636363634,129.6621085012182L199.66747272727272,132.87748584330603L202.19490909090908,134.54029616227695L204.72234545454546,134.92533415348518L207.2497818181818,138.31055954046022L209.77721818181817,142.18682945716387L212.30465454545455,146.95563317955487L214.83209090909088,144.0280387673067L217.35952727272726,140.26132072700184L219.88696363636362,140.89662703328605L222.4144,146.07149387829193L224.94183636363633,143.67480607566256L227.4692727272727,152.09021556895547L229.9967090909091,146.80713818130084L232.52414545454545,146.08644565118604L235.0515818181818,147.99388532774876L237.57901818181816,148.02702577673048L240.10645454545454,153.6624906052456L242.63389090909092,152.37664284637526L245.16132727272725,156.7705766579359L247.68876363636363,154.10774737717074L250.2162,154.2663793451868L252.74363636363637,158.71121558473504L255.2710727272727,158.2307460363246L257.7985090909091,159.4593433890091L260.32594545454543,154.43854529579133L262.8533818181818,150.508173030133L265.3808181818182,152.66607153506087L267.9082545454545,153.00840184742788L270.4356909090909,159.95652349981455L272.96312727272726,157.49197173233512L275.4905636363636,162.53233323166324L278.018,160.40548907321534L280.5454363636363,164.49220987917133L283.07287272727274,164.26390731788274L285.60030909090904,161.64145882401763L288.12774545454545,163.7855838744271L290.6551818181818,166.81220935633388L293.18261818181816,166.27466711313L295.71005454545457,164.20480061120153L298.23749090909087,160.19841442433886L300.7649272727273,166.18074165539514L303.29236363636363,166.82123014185743L305.8198,169.71435997995027L308.34723636363634,173.5614286787041L310.8746727272727,170.131128294869L313.4021090909091,171.97210749602615L315.9295454545454,163.98872332940323L318.4569818181818,170.22851422530246L320.98441818181817,176.22307922304842L323.5118545454545,174.07660266078258L326.0392909090909,175.36802237222577L328.56672727272723,175.36268277758325L331.09416363636365,175.50113589640742L333.62159999999994,173.97384952948337L336.14903636363636,170.39907431272184L338.6764727272727,170.73104729454266L341.20390909090906,173.1158456695123L343.7313454545455,171.38425292325286L346.2587818181818,179.32217258067365L348.7862181818182,180.86312929303284L351.31365454545454,189.297674939101L353.84109090909084,188.14922912422762L356.36852727272725,189.0514645070087L358.8959636363636,191.5123642617621L361.4234,193.24381458366798L363.95083636363637,185.84439322713024L366.47827272727267,189.42093761779643L369.0057090909091,193.2556011677852L371.53314545454543,197.57518954283495L374.0605818181818,196.96995541576385L376.5880181818182,200.69185407831546L379.1154545454545,200.83285784646478L381.64289090909085,194.40807499840662L384.17032727272726,187.78730086299768L386.6977636363636,186.85938060172234L389.22520000000003,185.63209526472033L391.7526363636363,188.2976462884696L394.2800727272727,187.60062546992054L396.8075090909091,190.47791278042683L399.33494545454545,195.97832634257293L401.86238181818175,194.96451140765564L404.38981818181816,193.23878699138334L406.9172545454545,197.60752619263346L409.4446909090909,205.0228123006635L411.9721272727273,203.46774583681972L414.4995636363636,211.23402007594345L417.027,210.9120646487162L419.55443636363634,206.62198759141486L422.0818727272727,203.78907600058838L424.6093090909091,200.6889393747665L427.1367454545454,194.93940541868287L429.66418181818176,198.69692801073094L432.19161818181817,195.6454208292661L434.7190545454545,191.73784110534817L437.24649090909094,196.4800919389051L439.77392727272724,198.77894890876516L442.3013636363636,202.58153045518347L444.8288,221.79646904673143L447.35623636363636,214.2934354746691L449.88367272727265,220.3292330148427L452.41110909090906,218.128757765448L454.9385454545454,208.63407991561652L457.46598181818183,210.31205958267108L459.9934181818182,209.33601065957552L462.5208545454545,206.85455210497526L465.0482909090909,201.3597355812232L467.57572727272725,209.89011617478312L470.1031636363636,216.59928786740588L472.6306,214.29661152354487L475.1580363636363,211.04182723517258L477.68547272727267,216.90093786332108L480.2129090909091,218.82438229807084L482.74034545454543,209.44334802203173L485.26778181818185,213.23742643101627L487.79521818181814,220.14756335677944L490.3226545454545,218.21282638229283L492.8500909090909,218.90287149618518L495.37752727272726,217.79390738410066L497.90496363636356,212.0925191283351L500.4324,215.8048648858146L502.9598363636363,218.62442684317028L505.48727272727274,214.54957866754708L508.0147090909091,216.1512386327186L510.5421454545454,219.37730648071732L513.0695818181817,225.95634452075396L515.5970181818182,222.82272124034586L518.1244545454546,225.49138684119208L520.6518909090909,240.6391541185696L523.1793272727272,233.4850919737046L525.7067636363636,235.4913521584036L528.2342,234.72881016589318L530.7616363636364,239.78295985136833L533.2890727272727,242.4393758253715L535.816509090909,236.2165702507775L538.3439454545454,234.61744749104273L540.8713818181818,233.56773049566294L543.3988181818182,238.18387865384278L545.9262545454545,238.66656403160084L548.4536909090908,244.652651240921L550.9811272727272,234.85700975090032L553.5085636363636,232.8349209918366L556.036,232.97244154773807L558.5634363636364,247.46081096746087L561.0908727272727,242.22220248471245L563.6183090909091,237.5833708911561L566.1457454545455,234.64475272115746L568.6731818181818,231.5577731491123L571.2006181818181,239.35479156738458L573.7280545454545,245.54233146051035L576.2554909090909,251.40811181270692L578.7829272727273,247.9277888787005L581.3103636363636,252.98571709705575L583.8377999999999,241.10335786290815L586.3652363636363,242.923492951082L588.8926727272727,248.36343338661567L591.4201090909091,247.7516080056036L593.9475454545454,244.86956393208604L596.4749818181817,248.69695427111822L599.0024181818181,254.73003798778115L601.5298545454546,260.3514207724054L604.0572909090909,249.76313842077835L606.5847272727273,252.51827466928768L609.1121636363636,256.1732485082377L611.6396,259.3578309408805L614.1670363636364,251.06173511695718L616.6944727272727,253.71161725730678L619.221909090909,256.13962313301096L621.7493454545454,254.83807247142036L624.2767818181818,244.52298718249864L626.8042181818182,246.4170067641491L629.3316545454545,254.7707284649229L631.8590909090908,254.94865095376966L634.3865272727272,238.41215970373025L636.9139636363636,232.59399992380037L639.4414,241.91729873510204L641.9688363636363,255.2481163626436L644.4962727272726,258.37238799843334L647.023709090909,248.4488028246948L649.5511454545455,244.7715882515183L652.0785818181818,248.36240535111884L654.6060181818181,249.85571034629245L657.1334545454545,254.243858908887L659.6608909090909,251.1691264720409L662.1883272727273,251.069830489853L664.7157636363636,254.02891058486608L667.2431999999999,250.602243582974L669.7706363636363,250.15732069049523L672.2980727272727,255.8636850549822L674.8255090909091,257.63040585720944L677.3529454545454,252.0854168617985L679.8803818181817,251.24317135121032L682.4078181818181,253.0679717880815L684.9352545454545,248.0000588907207L687.462690909091,249.68252530177864L689.9901272727272,258.07254408884444L692.5175636363635,259.4277910178209L695.045,259.4427709928337L697.5724363636364,246.33339750475855L700.0998727272727,252.2958574039168L702.6273090909091,263.5127376402871L705.1547454545455,258.4058878234298L707.6821818181817,259.68819917507665L710.2096181818181,265.65934150974437L712.7370545454545,257.61034356093734L715.2644909090908,251.2086972864651L717.7919272727272,249.71871030760875L720.3193636363636,245.21642267962048L722.8468,269.34141080534374L725.3742363636363,264.3925135669462L727.9016727272727,270.0124715648504L730.4291090909092,276.0050985623854L732.9565454545453,263.8699303990273L735.4839818181817,266.2854943111934L738.0114181818182,267.62841023417667L740.5388545454545,265.8537755335101L743.0662909090909,272.86020080594625L745.5937272727273,274.70514540880004L748.1211636363636,269.53282960062677L750.6486,270.5543876636357L753.1760363636364,262.5251744835574L755.7034727272726,258.95846959644587L758.230909090909,263.06105664190073L760.7583454545454,267.50652419815384L763.2857818181817,263.4472603517177L765.8132181818181,266.3360590766319L768.3406545454545,271.40618466320194L770.8680909090909,268.3041626869596L773.3955272727272,268.9165517961368L775.9229636363636,277.0524627015231L778.4504000000001,267.82836406500536L780.9778363636362,273.5624576632464L783.5052727272727,265.21734939958293L786.0327090909091,264.0806810554596L788.5601454545454,270.2819817839109L791.0875818181818,268.76325549948507L793.6150181818182,273.1519283668301L796.1424545454545,264.03120676374976L798.6698909090909,271.4804695111301L801.1973272727273,264.17668693433853L803.7247636363635,264.61902046901315L806.2521999999999,274.110094265356L808.7796363636363,280.275370142588L811.3070727272726,280.13038512571364L813.834509090909,274.06684019865855L816.3619454545454,270.65486089409717L818.8893818181818,274.75572552693615L821.4168181818181,279.738024320678L823.9442545454546,284.8040790119622L826.471690909091,287.95804402583036L828.9991272727272,283.4931213221148L831.5265636363636,274.2393471813918L834.054,279.9466470966766L836.5814363636363,278.6445770794178L839.1088727272727,277.68536513650633L841.6363090909091,276.2063259697219L844.1637454545454,288.8856043586883L846.6911818181818,292.4706913810825L849.2186181818182,283.0234970201168L851.7460545454544,276.4728809803203L854.2734909090908,287.57324065026495L856.8009272727272,282.4867218330918L859.3283636363635,285.2761792180199L861.8557999999999,288.3218400381355L864.3832363636363,295.39952930822136L866.9106727272728,293.71021643289396L869.438109090909,295.4607354581861L871.9655454545455,296.36867092731546L874.4929818181819,290.185090152519L877.0204181818181,284.69056840425594L879.5478545454545,283.84840228370314L882.0752909090909,286.93737617857187L884.6027272727272,293.8677573187761L887.1301636363636,292.73003225228797L889.6576,289.94159944475626L892.1850363636363,293.822999332076L894.7124727272727,289.6518020711688L897.2399090909091,286.68276653780526L899.7673454545453,282.4245071059114L902.2947818181817,288.2974164751564L904.8222181818181,296.6396530787581L907.3496545454544,280.1857760620373L909.8770909090908,279.4780025406034L912.4045272727273,276.5498947097879L914.9319636363637,283.64298938477236L917.4594,285.14013246753336L919.9868363636364,289.12538769280064L922.5142727272728,285.767932238789L925.041709090909,283.6689681903197L927.5691454545454,297.387826913338L930.0965818181818,302.27007159813746L932.6240181818181,303.37765346303325L935.1514545454545,303.253741850464L937.6788909090909,303.5141221702136L940.2063272727272,303.59412889600094L942.7337636363636,300.5443774993444L945.2612,304.5357613644145L947.7886363636362,302.0970002222739L950.3160727272726,305.6352379446437L952.843509090909,299.0800790384541L955.3709454545453,287.08117063016476L957.8983818181817,280.45204843980406L960.4258181818182,283.3100586766144L962.9532545454546,297.61003556454955L965.4806909090909,294.80569857719377L968.0081272727273,298.9450501582792L970.5355636363637,303.07569193731274L973.0629999999999,289.9135759823943L975.5904363636363,280.0528845878504L978.1178727272726,288.1529501969848L980.645309090909,289.2723851618304L983.1727454545454,298.954717756339L985.7001818181818,296.63538558544474L988.2276181818181,297.5052627996311L990.7550545454545,298.0509184524835L993.2824909090909,292.4553286746402L995.8099272727271,284.57574084492086L998.3373636363635,294.0014515107364L1000.8648,294.16821328315086L1003.3922363636362,295.0865725011409L1005.9196727272727,298.84536124055273L1008.4471090909091,302.23532762995046L1010.9745454545455,301.4235862187784L1013.5019818181818,300.8786562020919L1016.0294181818182,294.5068325838641L1018.5568545454546,296.34462040908346L1021.0842909090908,298.1451509609659L1023.6117272727272,301.3621870884194L1026.1391636363635,308.34028321557577L1028.6666,307.7075713041614L1031.1940363636363,313.36777627248637L1033.7214727272726,311.4334301220117L1036.2489090909091,298.8219852964123L1038.7763454545454,293.8106947255159L1041.3037818181817,293.76720964384225L1043.831218181818,293.6713687626851L1046.3586545454543,301.21371965696414L1048.8860909090909,301.97731321507564L1051.4135272727272,302.9546382037029L1053.9409636363637,302.9096893553276L1056.4684,310.87734513785546L1058.9958363636363,308.57006133381094L1061.5232727272728,310.0468723105405L1064.050709090909,316.14406233590927L1066.5781454545454,314.712076744808L1069.1055818181817,317.66791358076L1071.633018181818,314.35902585078753L1074.1604545454545,301.27843640738354L1076.6878909090908,307.0348953634128L1079.215327272727,297.8155138629438L1081.7427636363636,306.3909682832808L1084.2702,310.1096051932958L1086.7976363636365,309.1714843989365L1089.3250727272728,310.9837015677057L1091.852509090909,305.79929953864655L1094.3799454545454,304.83005007536013L1096.9073818181816,302.9232535864762L1099.4348181818182,291.7697152439268L1101.9622545454545,303.44480834862696L1104.4896909090908,307.0961197046101L1107.0171272727273,304.9893820659912L1109.5445636363636,315.1474138007513L1112.072,312.65581278240455L1114.5994363636362,311.1238200440149L1117.1268727272727,300.32243941868126L1119.654309090909,301.57161821511227L1122.1817454545453,301.2295765732931L1124.7091818181818,307.86450909705144L1127.2366181818181,299.9890757508948L1129.7640545454544,301.0552090232305L1132.291490909091,301.56114188580045L1134.8189272727273,299.26310477106733L1137.3463636363635,299.34759083657775L1139.8737999999998,308.02604908507624L1142.4012363636361,312.3202641174893L1144.9286727272727,310.8477075198714L1147.456109090909,300.47064614888575L1149.9835454545455,304.1970632111814L1152.5109818181818,316.7436644098638L1155.038418181818,317.42895087370215L1157.5658545454546,323.56212573509714L1160.093290909091,328.983619244464L1162.6207272727272,330.2446902463241L1165.1481636363635,325.90887602981354L1167.6755999999998,314.78065028677275L1170.2030363636363,315.88980950647397L1172.7304727272726,318.12072137435524L1175.257909090909,311.88494007253735L1177.7853454545454,310.1992936638841L1180.3127818181817,314.95053628133894L1182.8402181818183,327.4468926611374L1185.3676545454546,328.9037957681909L1187.8950909090909,329.74629853330225L1190.4225272727272,315.3850189576282L1192.9499636363635,314.5964114981725L1195.4774,314.0887316416403L1198.0048363636363,316.84808284942443L1200.5322727272726,309.0813541347039L1203.059709090909,316.5703714331542L1205.5871454545454,319.01838596108814L1208.1145818181817,313.14189018871315L1210.642018181818,316.2522937659368L1213.1694545454545,310.91093341135695L1215.6968909090908,312.1589608646853L1218.2243272727271,316.3704610143563L1220.7517636363636,316.6466706439538L1223.2792,320.55767478017077L1225.8066363636362,313.45712989251587L1228.3340727272728,309.46681390810414L1230.861509090909,305.83186828260597L1233.3889454545454,306.6875353524982L1235.9163818181817,313.5866405886348L1238.443818181818,306.55570406448567L1240.9712545454545,305.8533965750433L1243.4986909090908,308.66243600868637L1246.0261272727273,315.7516739846677L1248.5535636363636,315.2233983803636L1251.081,321.3744715767401L1253.6084363636364,320.0305438469227L1256.1358727272727,320.0503991383541L1258.663309090909,320.79971904386423L1261.1907454545453,310.1551327874026L1263.7181818181816,308.4836854082194L1266.2456181818181,314.1954966987287L1268.7730545454544,313.4965573194685L1271.3004909090907,314.6925854231746L1273.8279272727273,320.1294615474835L1276.3553636363636,310.89378353402L1278.8828,310.3222320344755L1281.4102363636364,305.1493050257384L1283.9376727272727,302.28571834564326L1286.465109090909,299.23836463928365L1288.9925454545453,298.50222040558083L1291.5199818181818,308.4363607009898L1294.047418181818,312.0343389654551L1296.5748545454544,322.98268338110546L1299.102290909091,330.98731415311397L1301.6297272727272,322.16191020512525L1304.1571636363635,315.37963017764093L1306.6845999999998,314.69816251362766L1309.2120363636361,312.27768237450897L1311.7394727272726,318.8786236230083L1314.266909090909,321.4564159264298L1316.7943454545455,308.7672943800774L1319.3217818181818,311.21613357842557L1321.849218181818,301.6915692232876L1324.3766545454546,309.4399863566658L1326.9040909090909,317.71063488040573L1329.4315272727272,326.0605648119101L1331.9589636363635,323.28874252789313L1334.4863999999998,317.8084637555658L1337.0138363636363,315.446099676679L1339.5412727272726,316.54686589121314L1342.0687090909091,320.65347067761155L1344.5961454545454,319.33907795100055L1347.1235818181817,319.57080326168955" style="fill: none;" fill="none"></path></g></g></g></g><g opacity="0.2"><g><g><g><path stroke="rgb(255, 112, 67)" stroke-width="2px" d="M126.37181818181818,37.54302692413359L128.89925454545454,37.152032375335985L131.4266909090909,38.93173170089751L133.95412727272725,58.98211193084746L136.48156363636363,56.57142829895049L139.009,54.02502012252837L141.53643636363637,60.10386180877715L144.06387272727272,62.37702322006255L146.59130909090908,69.17403650283843L149.11874545454543,68.16643905639678L151.64618181818182,71.62337017059352L154.17361818181817,85.62457036972071L156.70105454545455,92.60674428939845L159.2284909090909,92.39911270141627L161.75592727272726,94.15184688568141L164.28336363636362,101.10885334014918L166.81079999999997,106.3679547309878L169.33823636363636,106.7931051254275L171.86567272727274,96.01873350143458L174.3931090909091,113.57573699951197L176.92054545454542,107.62093496322657L179.4479818181818,104.49028205871608L181.97541818181818,125.5806179046633L184.50285454545454,122.23604154586813L187.0302909090909,125.6920738220217L189.55772727272725,115.0696058273318L192.08516363636363,122.62613725662253L194.61260000000001,121.45405244827292L197.14003636363634,143.244583129883L199.66747272727272,137.7005500793459L202.19490909090908,137.03451108932515L204.72234545454546,135.50289106369038L207.2497818181818,143.38839721679707L209.77721818181817,148.00123405456563L212.30465454545455,154.10883855819722L214.83209090909088,139.63664722442647L217.35952727272726,134.6112437248232L219.88696363636362,141.8495864868166L222.4144,153.83379411697408L224.94183636363633,140.07977437973042L227.4692727272727,164.7133297920229L229.9967090909091,138.88252210617085L232.52414545454545,145.00540685653706L235.0515818181818,150.85504484176656L237.57901818181816,148.0767364501955L240.10645454545454,162.11568784713765L242.63389090909092,150.44787120819112L245.16132727272725,163.36147737503072L247.68876363636363,150.11350345611592L250.2162,154.5043272972109L252.74363636363637,165.37846994400041L255.2710727272727,157.5100417137148L257.7985090909091,161.30223941802998L260.32594545454543,146.90734815597554L262.8533818181818,144.61261463165303L265.3808181818182,155.90291929245015L267.9082545454545,153.5218973159792L270.4356909090909,170.37870597839373L272.96312727272726,153.79514408111592L275.4905636363636,170.09287548065203L278.018,157.21522283554097L280.5454363636363,170.62229108810442L283.07287272727274,163.92145347595235L285.60030909090904,157.70778608322163L288.12774545454545,167.0017714500429L290.6551818181818,171.35214757919329L293.18261818181816,165.4683537483217L295.71005454545457,161.10000085830708L298.23749090909087,154.18883514404317L300.7649272727273,175.1542325019838L303.29236363636363,167.78196287155168L305.8198,174.05405473709123L308.34723636363634,179.33203172683733L310.8746727272727,164.98567771911638L313.4021090909091,174.73357629776018L315.9295454545454,152.01364707946797L318.4569818181818,179.588200569153L320.98441818181817,185.2149267196657L323.5118545454545,170.85688781738298L326.0392909090909,177.30515193939226L328.56672727272723,175.3546733856203L331.09416363636365,175.70881557464617L333.62159999999994,171.68291997909563L336.14903636363636,165.03691148757952L338.6764727272727,171.22900676727312L341.20390909090906,176.69304323196428L343.7313454545455,168.7868638038637L346.2587818181818,191.22905206680315L348.7862181818182,183.17456436157244L351.31365454545454,201.9494934082033L353.84109090909084,186.42656040191667L356.36852727272725,190.40481758117693L358.8959636363636,195.20371389389055L361.4234,195.8409900665285L363.95083636363637,174.74526119232195L366.47827272727267,194.78575420379656L369.0057090909091,199.0075964927675L371.53314545454543,204.05457210540789L374.0605818181818,196.06210422515886L376.5880181818182,206.27470207214373L379.1154545454545,201.04436349868791L381.64289090909085,184.77090072631853L384.17032727272726,177.85613965988176L386.6977636363636,185.46750020980852L389.22520000000003,183.79116725921648L391.7526363636363,192.29597282409685L394.2800727272727,186.55509424209612L396.8075090909091,194.79384374618547L399.33494545454545,204.2289466857912L401.86238181818175,193.4437890052797L404.38981818181816,190.65020036697405L406.9172545454545,204.160634994507L409.4446909090909,216.1457414627077L411.9721272727273,201.13514614105242L414.4995636363636,222.88343143463152L417.027,210.4291315078737L419.55443636363634,200.18687200546282L422.0818727272727,199.53970861434954L424.6093090909091,196.03873443603533L427.1367454545454,186.31510448455828L429.66418181818176,204.33321189880388L432.19161818181817,191.06816005706804L434.7190545454545,185.87647151947039L437.24649090909094,203.59346818923967L439.77392727272724,202.22723436355608L442.3013636363636,208.28540277481096L444.8288,250.6188769340516L447.35623636363636,203.03888511657732L449.88367272727265,229.38292932510387L452.41110909090906,214.8280448913576L454.9385454545454,194.3920631408693L457.46598181818183,212.82902908325212L459.9934181818182,207.87193727493303L462.5208545454545,203.13236427307146L465.0482909090909,193.11751079559343L467.57572727272725,222.68568706512468L470.1031636363636,226.66304540634167L472.6306,210.84259700775164L475.1580363636363,206.15965080261248L477.68547272727267,225.6896038055421L480.2129090909091,221.70954895019548L482.74034545454543,195.37179660797136L485.26778181818185,218.9285440444948L487.79521818181814,230.51276874542248L490.3226545454545,215.31072092056291L492.8500909090909,219.93793916702288L495.37752727272726,216.13046121597307L497.90496363636356,203.5404367446901L500.4324,221.37338352203386L502.9598363636363,222.8537697792055L505.48727272727274,208.43730640411394L508.0147090909091,218.55372858047502L510.5421454545454,224.21640825271618L513.0695818181817,235.82490158081066L515.5970181818182,218.12228631973284L518.1244545454546,229.49438524246227L520.6518909090909,263.3608050346375L523.1793272727272,222.75399875640886L525.7067636363636,238.50074243545544L528.2342,233.58499717712414L530.7616363636364,247.36418437957775L533.2890727272727,246.42399978637707L535.816509090909,226.8823618888856L538.3439454545454,232.21876335144054L540.8713818181818,231.9931550025941L543.3988181818182,245.1081008911134L545.9262545454545,239.3905920982362L548.4536909090908,253.6317820549012L550.9811272727272,220.1635475158693L553.5085636363636,229.80178785324108L556.036,233.1787223815919L558.5634363636364,269.19336509704596L561.0908727272727,234.3642897605897L563.6183090909091,230.6251235008241L566.1457454545455,230.23682546615612L568.6731818181818,226.92730379104626L571.2006181818181,251.0503191947938L573.7280545454545,254.8236413002015L576.2554909090909,260.2067823410035L578.7829272727273,242.70730447769176L581.3103636363636,260.5726094245911L583.8377999999999,223.2798190116884L586.3652363636363,245.65369558334362L588.8926727272727,256.52334403991705L591.4201090909091,246.83386993408214L593.9475454545454,240.54649782180798L596.4749818181817,254.43803977966317L599.0024181818181,263.7796635627747L601.5298545454546,268.7834949493409L604.0572909090909,233.88071489334118L606.5847272727273,256.6509790420533L609.1121636363636,261.65570926666265L611.6396,264.1347045898438L614.1670363636364,238.6175913810731L616.6944727272727,257.68644046783453L619.221909090909,259.7816319465638L621.7493454545454,252.8857464790345L624.2767818181818,229.0503592491151L626.8042181818182,249.25803613662728L629.3316545454545,267.3013110160828L631.8590909090908,255.21553468704232L634.3865272727272,213.6074228286745L636.9139636363636,223.86676025390636L639.4414,255.90224695205697L641.9688363636363,275.24434280395513L644.4962727272726,263.058795452118L647.023709090909,233.56342506408703L649.5511454545455,239.25576639175426L652.0785818181818,253.74863100051888L654.6060181818181,252.09566783905038L657.1334545454545,260.82608175277716L659.6608909090909,246.55702781677257L662.1883272727273,250.92088651657113L664.7157636363636,258.46753072738653L667.2431999999999,245.46224308013927L669.7706363636363,249.4899363517762L672.2980727272727,264.42323160171514L674.8255090909091,260.28048706054693L677.3529454545454,243.76793336868298L679.8803818181817,249.97980308532723L682.4078181818181,255.80517244338998L684.9352545454545,240.39818954467785L687.462690909091,252.20622491836556L689.9901272727272,270.65757226943975L692.5175636363635,261.46066141128546L695.045,259.46524095535284L697.5724363636364,226.66933727264416L700.0998727272727,261.2395472526551L702.6273090909091,280.3380579948426L705.1547454545455,250.74561309814462L707.6821818181817,261.6116662025452L710.2096181818181,274.6160550117493L712.7370545454545,245.53684663772594L715.2644909090908,241.60622787475597L717.7919272727272,247.48372983932504L720.3193636363636,238.4629912376405L722.8468,305.52889299392706L725.3742363636363,256.96916770935064L727.9016727272727,278.4424085617066L730.4291090909092,284.99403905868536L732.9565454545453,245.6671781539918L735.4839818181817,269.9088401794434L738.0114181818182,269.6427841186524L740.5388545454545,263.1918234825135L743.0662909090909,283.36983871459967L745.5937272727273,277.4725623130799L748.1211636363636,261.77435588836676L750.6486,272.08672475814825L753.1760363636364,250.48135471344003L755.7034727272726,253.60841226577767L758.230909090909,269.21493721008306L760.7583454545454,274.1747255325318L763.2857818181817,257.3583645820618L765.8132181818181,270.6692571640015L768.3406545454545,279.01137304306036L770.8680909090909,263.6511297225953L773.3955272727272,269.83513545989996L775.9229636363636,289.2563290596009L778.4504000000001,253.99221611022958L780.9778363636362,282.16359806060797L783.5052727272727,252.69968700408944L786.0327090909091,262.3756785392762L788.5601454545454,279.58393287658697L791.0875818181818,266.4851660728455L793.6150181818182,279.73493766784674L796.1424545454545,250.35012435913094L798.6698909090909,282.6543636322022L801.1973272727273,253.22101306915292L803.7247636363635,265.28252077102667L806.2521999999999,288.34670495986944L808.7796363636363,289.5232839584351L811.3070727272726,279.9129076004029L813.834509090909,264.971522808075L816.3619454545454,265.5368919372559L818.8893818181818,280.90702247619635L821.4168181818181,287.21147251129156L823.9442545454546,292.4031610488892L826.471690909091,292.6889915466309L828.9991272727272,276.7957372665406L831.5265636363636,260.35868597030645L834.054,288.50759696960455L836.5814363636363,276.6914720535279L839.1088727272727,276.2465472221375L841.6363090909091,273.9877672195435L844.1637454545454,307.90452194213873L846.6911818181818,297.8483219146729L849.2186181818182,268.85270547866827L851.7460545454544,266.64695692062384L854.2734909090908,304.22378015518194L856.8009272727272,274.8569436073304L859.3283636363635,289.4603652954102L861.8557999999999,292.8903312683106L864.3832363636363,306.01606321334845L866.9106727272728,291.1762471199036L869.438109090909,298.0865139961243L871.9655454545455,297.730574131012L874.4929818181819,280.909718990326L877.0204181818181,276.4487857818604L879.5478545454545,282.5851531028748L882.0752909090909,291.5708370208741L884.6027272727272,304.2633290290833L887.1301636363636,291.02344465255743L889.6576,285.75895023345953L892.1850363636363,299.6450991630555L894.7124727272727,283.3950061798096L897.2399090909091,282.2292132377625L899.7673454545453,276.0371179580689L902.2947818181817,297.1067805290223L904.8222181818181,309.15300798416143L907.3496545454544,255.50496053695687L909.8770909090908,278.4163422584534L912.4045272727273,272.15773296356207L914.9319636363637,294.28263139724737L917.4594,287.38584709167486L919.9868363636364,295.10327053070074L922.5142727272728,280.73174905776983L925.041709090909,280.5205221176148L927.5691454545454,317.9661149978638L930.0965818181818,309.59343862533575L932.6240181818181,305.03902626037603L935.1514545454545,303.06787443161016L937.6788909090909,303.90469264984137L940.2063272727272,303.71413898468023L942.7337636363636,295.96975040435797L945.2612,310.5228371620179L947.7886363636362,298.4388585090638L950.3160727272726,310.9425945281983L952.843509090909,289.24734067916876L955.3709454545453,269.08280801773077L957.8983818181817,270.5083651542664L960.4258181818182,287.5970740318299L962.9532545454546,319.0600008964539L965.4806909090909,290.59919309616095L968.0081272727273,305.1540775299073L970.5355636363637,309.27165460586554L973.0629999999999,270.17040205001837L975.5904363636363,265.2618474960328L978.1178727272726,300.3030486106873L980.645309090909,290.9515376091004L983.1727454545454,313.47821664810186L985.7001818181818,293.1563873291016L988.2276181818181,298.8100786209107L990.7550545454545,298.86940193176275L993.2824909090909,284.0619440078736L995.8099272727271,272.75635910034185L998.3373636363635,308.1400175094605L1000.8648,294.4183559417725L1003.3922363636362,296.46411132812506L1005.9196727272727,304.48354434967047L1008.4471090909091,307.32027721405035L1010.9745454545455,300.2059741020203L1013.5019818181818,300.06126117706305L1016.0294181818182,284.9490971565247L1018.5568545454546,299.1013021469117L1021.0842909090908,300.8459467887879L1023.6117272727272,306.1877412796021L1026.1391636363635,318.8074274063111L1028.6666,306.7585034370423L1031.1940363636363,321.85808372497564L1033.7214727272726,308.5319108963013L1036.2489090909091,279.904818058014L1038.7763454545454,286.2937588691712L1041.3037818181817,293.70198202133184L1043.831218181818,293.52760744094854L1046.3586545454543,312.5272459983826L1048.8860909090909,303.12270355224615L1051.4135272727272,304.42062568664556L1053.9409636363637,302.84226608276373L1056.4684,322.82882881164556L1058.9958363636363,305.10913562774664L1061.5232727272728,312.2620887756348L1064.050709090909,325.28984737396246L1066.5781454545454,312.56409835815435L1069.1055818181817,322.10166883468634L1071.633018181818,309.3956942558289L1074.1604545454545,281.6575522422791L1076.6878909090908,315.6695837974549L1079.215327272727,283.9864416122437L1081.7427636363636,319.2541499137879L1084.2702,315.68756055831915L1086.7976363636365,307.7643032073975L1089.3250727272728,313.7020273208619L1091.852509090909,298.0226964950562L1094.3799454545454,303.3761758804322L1096.9073818181816,300.06305885314947L1099.4348181818182,275.0394077301026L1101.9622545454545,320.9574480056763L1104.4896909090908,312.5730867385865L1107.0171272727273,301.8292756080628L1109.5445636363636,330.3844614028931L1112.072,308.91841125488287L1114.5994363636362,308.82583093643194L1117.1268727272727,284.12036848068243L1119.654309090909,303.4453864097596L1122.1817454545453,300.71651411056524L1124.7091818181818,317.8169078826905L1127.2366181818181,288.175925731659L1129.7640545454544,302.65440893173223L1132.291490909091,302.32004117965704L1134.8189272727273,295.81604909896856L1137.3463636363635,299.474319934845L1139.8737999999998,321.04373645782476L1142.4012363636361,318.76158666610723L1144.9286727272727,308.63887262344366L1147.456109090909,284.9050540924073L1149.9835454545455,309.7866888046265L1152.5109818181818,335.5635662078858L1155.038418181818,318.45688056945806L1157.5658545454546,332.7618880271912L1160.093290909091,337.11585950851446L1162.6207272727272,332.13629674911505L1165.1481636363635,319.40515470504766L1167.6755999999998,298.08831167221075L1170.2030363636363,317.5535483360291L1172.7304727272726,321.46708917617804L1175.257909090909,302.53126811981207L1177.7853454545454,307.6708240509034L1180.3127818181817,322.0774002075196L1182.8402181818183,346.191427230835L1185.3676545454546,331.08915042877203L1187.8950909090909,331.0100526809693L1190.4225272727272,293.84309959411627L1192.9499636363635,313.41350030899054L1195.4774,313.3272118568421L1198.0048363636363,320.98710966110235L1200.5322727272726,297.4312610626221L1203.059709090909,327.8038973808289L1205.5871454545454,322.6904077529908L1208.1145818181817,304.3271465301514L1210.642018181818,320.91789913177496L1213.1694545454545,302.89889287948614L1215.6968909090908,314.0310020446778L1218.2243272727271,322.68771123886114L1220.7517636363636,317.06098508834845L1223.2792,326.4241809844971L1225.8066363636362,302.8063125610352L1228.3340727272728,303.4813399314881L1230.861509090909,300.3794498443604L1233.3889454545454,307.9710359573365L1235.9163818181817,323.93529844284063L1238.443818181818,296.00929927825933L1240.9712545454545,304.7999353408814L1243.4986909090908,312.8759951591492L1246.0261272727273,326.385530948639L1248.5535636363636,314.4309849739075L1251.081,330.60108137130743L1253.6084363636364,318.0146522521973L1256.1358727272727,320.08018207550055L1258.663309090909,321.9236989021302L1261.1907454545453,294.18825340271L1263.7181818181816,305.9765143394471L1266.2456181818181,322.763213634491L1268.7730545454544,312.4481482505799L1271.3004909090907,316.4866275787354L1273.8279272727273,328.2847757339478L1276.3553636363636,297.0402665138245L1278.8828,309.4649047851563L1281.4102363636364,297.38991451263433L1283.9376727272727,297.99033832550055L1286.465109090909,294.6673340797425L1288.9925454545453,297.39800405502325L1291.5199818181818,323.33757114410406L1294.047418181818,317.43130636215216L1296.5748545454544,339.4052000045777L1299.102290909091,342.99426031112677L1301.6297272727272,308.92380428314215L1304.1571636363635,305.20621013641363L1306.6845999999998,313.6759610176087L1309.2120363636361,308.6469621658326L1311.7394727272726,328.7800354957581L1314.266909090909,325.32310438156134L1316.7943454545455,289.73361206054693L1319.3217818181818,314.8893923759461L1321.849218181818,287.40472269058233L1324.3766545454546,321.06261205673223L1326.9040909090909,330.1166076660157L1329.4315272727272,338.58545970916754L1331.9589636363635,319.13100910186773L1334.4863999999998,309.5880455970765L1337.0138363636363,311.90255355834967L1339.5412727272726,318.19801521301275L1342.0687090909091,326.8133778572083L1344.5961454545454,317.36748886108404L1347.1235818181817,319.9183912277222" style="fill: none;" fill="none"></path></g></g></g></g></g></g><g transform="translate(50, 377)" clip-path="url(#clip_1)"><clipPath id="clip_1"><rect width="1390" height="23"></rect></clipPath><g><g><line x1="0" y1="0" x2="0" y2="5" style="visibility: inherit;" fill="rgb(0, 0, 0)" stroke="rgb(204, 204, 204)" stroke-width="1px"></line><line x1="126.37181818181818" y1="0" x2="126.37181818181818" y2="5" style="visibility: inherit;" fill="rgb(0, 0, 0)" stroke="rgb(204, 204, 204)" stroke-width="1px"></line><line x1="252.74363636363637" y1="0" x2="252.74363636363637" y2="5" style="visibility: inherit;" fill="rgb(0, 0, 0)" stroke="rgb(204, 204, 204)" stroke-width="1px"></line><line x1="379.1154545454545" y1="0" x2="379.1154545454545" y2="5" style="visibility: inherit;" fill="rgb(0, 0, 0)" stroke="rgb(204, 204, 204)" stroke-width="1px"></line><line x1="505.48727272727274" y1="0" x2="505.48727272727274" y2="5" style="visibility: inherit;" fill="rgb(0, 0, 0)" stroke="rgb(204, 204, 204)" stroke-width="1px"></line><line x1="631.8590909090908" y1="0" x2="631.8590909090908" y2="5" style="visibility: inherit;" fill="rgb(0, 0, 0)" stroke="rgb(204, 204, 204)" stroke-width="1px"></line><line x1="758.230909090909" y1="0" x2="758.230909090909" y2="5" style="visibility: inherit;" fill="rgb(0, 0, 0)" stroke="rgb(204, 204, 204)" stroke-width="1px"></line><line x1="884.6027272727272" y1="0" x2="884.6027272727272" y2="5" style="visibility: inherit;" fill="rgb(0, 0, 0)" stroke="rgb(204, 204, 204)" stroke-width="1px"></line><line x1="1010.9745454545455" y1="0" x2="1010.9745454545455" y2="5" style="visibility: inherit;" fill="rgb(0, 0, 0)" stroke="rgb(204, 204, 204)" stroke-width="1px"></line><line x1="1137.3463636363635" y1="0" x2="1137.3463636363635" y2="5" style="visibility: inherit;" fill="rgb(0, 0, 0)" stroke="rgb(204, 204, 204)" stroke-width="1px"></line><line x1="1263.7181818181816" y1="0" x2="1263.7181818181816" y2="5" style="visibility: inherit;" fill="rgb(0, 0, 0)" stroke="rgb(204, 204, 204)" stroke-width="1px"></line><line x1="1390.09" y1="0" x2="1390.09" y2="5" style="visibility: inherit;" fill="rgb(0, 0, 0)" stroke="rgb(204, 204, 204)" stroke-width="1px"></line></g><g transform="translate(0, 8)"><text x="0" y="0" dx="0em" dy="0.95em" style="text-anchor: middle; visibility: hidden; font-family: Roboto, sans-serif; font-size: 12px; font-weight: 200;" fill="rgb(255, 255, 255)" stroke="none" stroke-width="1px">-50</text><text x="126.37181818181818" y="0" dx="0em" dy="0.95em" style="text-anchor: middle; visibility: inherit; font-family: Roboto, sans-serif; font-size: 12px; font-weight: 200;" fill="rgb(255, 255, 255)" stroke="none" stroke-width="1px">0</text><text x="252.74363636363637" y="0" dx="0em" dy="0.95em" style="text-anchor: middle; visibility: inherit; font-family: Roboto, sans-serif; font-size: 12px; font-weight: 200;" fill="rgb(255, 255, 255)" stroke="none" stroke-width="1px">50</text><text x="379.1154545454545" y="0" dx="0em" dy="0.95em" style="text-anchor: middle; visibility: inherit; font-family: Roboto, sans-serif; font-size: 12px; font-weight: 200;" fill="rgb(255, 255, 255)" stroke="none" stroke-width="1px">100</text><text x="505.48727272727274" y="0" dx="0em" dy="0.95em" style="text-anchor: middle; visibility: inherit; font-family: Roboto, sans-serif; font-size: 12px; font-weight: 200;" fill="rgb(255, 255, 255)" stroke="none" stroke-width="1px">150</text><text x="631.8590909090908" y="0" dx="0em" dy="0.95em" style="text-anchor: middle; visibility: inherit; font-family: Roboto, sans-serif; font-size: 12px; font-weight: 200;" fill="rgb(255, 255, 255)" stroke="none" stroke-width="1px">200</text><text x="758.230909090909" y="0" dx="0em" dy="0.95em" style="text-anchor: middle; visibility: inherit; font-family: Roboto, sans-serif; font-size: 12px; font-weight: 200;" fill="rgb(255, 255, 255)" stroke="none" stroke-width="1px">250</text><text x="884.6027272727272" y="0" dx="0em" dy="0.95em" style="text-anchor: middle; visibility: inherit; font-family: Roboto, sans-serif; font-size: 12px; font-weight: 200;" fill="rgb(255, 255, 255)" stroke="none" stroke-width="1px">300</text><text x="1010.9745454545455" y="0" dx="0em" dy="0.95em" style="text-anchor: middle; visibility: inherit; font-family: Roboto, sans-serif; font-size: 12px; font-weight: 200;" fill="rgb(255, 255, 255)" stroke="none" stroke-width="1px">350</text><text x="1137.3463636363635" y="0" dx="0em" dy="0.95em" style="text-anchor: middle; visibility: inherit; font-family: Roboto, sans-serif; font-size: 12px; font-weight: 200;" fill="rgb(255, 255, 255)" stroke="none" stroke-width="1px">400</text><text x="1263.7181818181816" y="0" dx="0em" dy="0.95em" style="text-anchor: middle; visibility: inherit; font-family: Roboto, sans-serif; font-size: 12px; font-weight: 200;" fill="rgb(255, 255, 255)" stroke="none" stroke-width="1px">450</text><text x="1390.09" y="0" dx="0em" dy="0.95em" style="text-anchor: middle; visibility: hidden; font-family: Roboto, sans-serif; font-size: 12px; font-weight: 200;" fill="rgb(255, 255, 255)" stroke="none" stroke-width="1px">500</text></g><line x1="0" y1="0" x2="1390.09" y2="0" fill="rgb(0, 0, 0)" stroke="rgb(204, 204, 204)" stroke-width="1px"></line></g></g></g></g></svg>